<?xml version="1.0" standalone="no"?>
<!DOCTYPE svg PUBLIC "-//W3C//DTD SVG 20010904//EN"
 "http://www.w3.org/TR/2001/REC-SVG-20010904/DTD/svg10.dtd">
<svg version="1.0" xmlns="http://www.w3.org/2000/svg"
 width="801.000000pt" height="717.000000pt" viewBox="0 0 801.000000 717.000000"
 preserveAspectRatio="xMidYMid meet">

<g transform="translate(0.000000,717.000000) scale(0.100000,-0.100000)"
fill="#000000" stroke="none">
<path d="M4385 7130 c-3 -5 -1 -10 4 -10 6 0 11 5 11 10 0 6 -2 10 -4 10 -3 0
-8 -4 -11 -10z"/>
<path d="M4436 7131 c-3 -4 6 -13 20 -20 35 -16 40 -14 19 9 -20 22 -31 25
-39 11z"/>
<path d="M3615 7101 c-12 -21 18 -49 52 -49 39 0 35 14 -7 23 -17 4 -28 10
-25 15 3 5 1 11 -4 14 -5 4 -12 2 -16 -3z"/>
<path d="M4811 7074 c0 -11 3 -14 6 -6 3 7 2 16 -1 19 -3 4 -6 -2 -5 -13z"/>
<path d="M3557 7063 c8 -22 24 -34 36 -26 9 5 -21 43 -34 43 -5 0 -5 -8 -2
-17z"/>
<path d="M3390 7061 c0 -5 7 -12 16 -15 22 -9 24 -8 24 9 0 8 -9 15 -20 15
-11 0 -20 -4 -20 -9z"/>
<path d="M3476 7050 c8 -32 8 -32 36 -28 22 4 22 5 3 13 -11 5 -26 16 -33 24
-11 14 -12 12 -6 -9z"/>
<path d="M4915 7050 c-3 -5 1 -10 9 -10 9 0 16 5 16 10 0 6 -4 10 -9 10 -6 0
-13 -4 -16 -10z"/>
<path d="M4095 7038 c-232 -15 -271 -21 -425 -58 -63 -15 -151 -33 -194 -40
-44 -6 -86 -15 -95 -20 -86 -42 -175 -46 -263 -9 -54 22 -149 38 -133 21 6 -5
44 -27 85 -48 41 -21 108 -60 148 -87 51 -34 81 -47 95 -44 12 3 85 24 162 47
181 54 312 84 455 104 63 9 149 22 190 28 82 14 641 17 835 5 169 -10 365 -25
415 -32 l45 -5 -54 15 c-29 8 -58 18 -65 23 -6 4 -20 8 -31 8 -19 2 -72 11
-190 35 -27 5 -66 11 -85 14 -19 2 -71 8 -115 14 -266 36 -529 45 -780 29z"/>
<path d="M3183 6971 c3 -27 2 -39 -5 -34 -7 3 -8 1 -4 -5 11 -18 25 -15 58 13
26 22 27 25 9 25 -12 0 -21 4 -21 10 0 5 -10 14 -21 21 -21 11 -22 10 -16 -30z"/>
<path d="M3095 6970 c-3 -5 -1 -10 4 -10 6 0 11 5 11 10 0 6 -2 10 -4 10 -3 0
-8 -4 -11 -10z"/>
<path d="M3015 6960 c-3 -5 -1 -10 4 -10 6 0 11 5 11 10 0 6 -2 10 -4 10 -3 0
-8 -4 -11 -10z"/>
<path d="M1822 6925 c3 -3 38 -14 79 -25 85 -22 318 -117 399 -162 124 -69
180 -126 180 -182 0 -21 10 -31 51 -51 80 -41 175 -101 233 -149 30 -24 64
-47 76 -51 42 -13 125 4 161 35 49 39 92 105 91 137 0 55 2 54 -70 47 -119
-11 -238 22 -372 105 -114 71 -231 135 -276 152 -31 12 -63 30 -72 40 -9 10
-25 19 -35 19 -10 0 -29 8 -43 17 -16 10 -44 16 -75 15 -29 0 -54 5 -61 12 -7
7 -20 11 -29 9 -9 -3 -65 5 -124 16 -116 23 -121 23 -113 16z"/>
<path d="M2018 6918 c5 -5 16 -8 23 -6 8 3 3 7 -10 11 -17 4 -21 3 -13 -5z"/>
<path d="M6141 6733 c-3 -100 2 -174 13 -192 4 -5 0 -13 -7 -18 -25 -14 -39
-53 -31 -86 6 -29 5 -30 -10 -18 -16 13 -17 9 -16 -55 2 -78 -2 -110 -24 -206
-17 -77 -151 -476 -169 -505 -4 -6 -5 -18 -1 -26 3 -8 -2 -17 -11 -21 -12 -4
-14 -12 -9 -28 3 -13 3 -20 -2 -15 -9 9 -64 -42 -64 -60 0 -7 -7 -13 -15 -13
-8 0 -15 5 -15 10 0 6 5 10 10 10 11 0 14 43 3 53 -3 4 -13 1 -22 -6 -8 -6 4
23 27 66 23 43 42 85 42 93 0 8 9 32 19 52 11 20 27 62 36 92 10 30 24 69 31
85 24 55 62 179 74 243 7 34 17 65 21 68 5 3 9 22 9 42 0 20 4 53 10 72 5 19
11 98 11 175 1 77 5 153 10 169 11 37 6 32 -65 -74 -203 -303 -223 -330 -239
-326 -6 1 -9 1 -4 -1 4 -3 7 -9 7 -13 0 -11 -200 -229 -303 -330 -43 -41 -77
-79 -77 -83 0 -5 6 -15 14 -22 11 -12 18 -9 42 16 28 29 55 35 101 23 13 -4
21 -10 18 -14 -3 -5 -19 -5 -35 0 -22 6 -34 5 -45 -6 -35 -35 -4 -73 35 -44
17 13 30 16 47 9 16 -6 25 -4 30 5 4 7 19 19 33 26 l25 13 -19 -22 c-14 -16
-16 -21 -5 -21 21 1 66 41 52 46 -23 10 30 92 60 94 7 0 -11 -39 -23 -50 -13
-12 -9 -60 4 -60 25 0 46 12 46 26 0 8 7 14 16 14 8 0 12 -5 9 -10 -4 -6 -1
-18 6 -26 9 -11 8 -18 -6 -34 -10 -11 -13 -20 -7 -20 7 0 12 -18 12 -45 0 -43
-2 -46 -30 -51 -16 -4 -30 -13 -30 -20 0 -19 24 -18 40 1 7 9 15 13 18 10 3
-3 -2 -13 -12 -24 -14 -15 -24 -17 -59 -10 -47 8 -64 0 -69 -34 -2 -16 -9 -21
-26 -20 -12 2 -22 -2 -22 -7 0 -6 5 -10 11 -10 6 0 9 -7 5 -15 -3 -8 -1 -15 4
-15 6 0 10 5 10 10 0 6 5 10 10 10 6 0 3 -11 -5 -24 -9 -14 -15 -32 -13 -42 2
-9 -2 -19 -8 -21 -7 -2 -12 2 -11 9 2 48 -2 51 -34 23 -17 -14 -34 -23 -37
-20 -8 7 29 45 44 45 18 0 28 20 16 32 -7 7 -17 6 -31 -1 -30 -16 -26 3 4 23
14 9 25 25 25 35 0 21 30 51 52 51 21 0 42 26 35 44 -7 18 11 36 29 29 12 -5
19 13 15 40 0 4 6 7 14 7 8 0 15 7 15 15 0 9 -6 12 -17 8 -25 -8 -93 -75 -93
-90 0 -7 -4 -13 -10 -13 -5 0 -20 -18 -32 -40 -13 -22 -29 -40 -35 -40 -16 0
-17 12 -1 28 14 14 4 27 -12 17 -7 -4 -10 -19 -6 -35 3 -19 1 -30 -9 -34 -9
-3 -15 1 -15 10 0 18 -24 14 -26 -4 -1 -7 -2 -16 -3 -22 0 -5 -8 -10 -17 -10
-9 0 -23 -8 -30 -17 -19 -25 -17 -38 2 -19 23 24 31 19 26 -15 -3 -22 -9 -29
-19 -24 -11 3 -13 1 -9 -10 7 -19 -3 -45 -18 -45 -26 1 -36 16 -27 46 10 36 1
66 -17 55 -10 -6 -11 -13 -1 -34 7 -15 9 -30 6 -33 -10 -10 -37 23 -37 45 0
12 -4 21 -9 21 -16 0 -23 -20 -12 -34 6 -7 8 -16 4 -19 -12 -12 -23 -7 -23 9
0 13 -7 15 -29 11 -18 -4 -31 -2 -33 5 -3 9 -6 9 -12 0 -4 -7 -3 -12 3 -12 6
0 8 -7 5 -15 -4 -8 -10 -13 -14 -10 -4 3 -13 -9 -19 -25 -5 -17 -15 -30 -20
-30 -19 0 -12 30 13 51 21 18 23 25 15 49 -6 15 -20 32 -32 38 -16 8 -18 11
-6 11 15 1 34 29 26 37 -11 12 -68 -32 -85 -65 -19 -37 -19 -38 -1 -49 10 -7
19 -19 19 -27 0 -8 5 -15 11 -15 5 0 7 -5 4 -10 -4 -6 -10 -8 -15 -5 -4 3 -13
-2 -20 -10 -7 -8 -19 -15 -26 -15 -8 0 -14 -5 -14 -11 0 -6 11 -8 29 -4 23 5
29 2 34 -14 3 -14 0 -21 -10 -21 -8 0 -11 5 -7 11 4 7 1 10 -7 7 -8 -3 -15
-14 -17 -26 -2 -12 -7 -22 -11 -22 -11 0 -1 -49 10 -56 5 -3 9 -12 9 -21 0 -9
-14 3 -31 27 -23 31 -28 45 -19 50 7 4 9 13 6 19 -10 16 -26 14 -26 -4 0 -19
-7 -19 -25 -1 -14 13 -13 34 1 78 5 16 2 19 -13 16 -10 -2 -17 -9 -16 -16 2
-6 -2 -24 -8 -39 -9 -25 -12 -26 -20 -10 -11 20 -63 24 -56 5 2 -7 11 -12 21
-10 21 4 21 -7 -1 -23 -15 -11 -15 -15 -4 -29 12 -14 11 -19 -3 -34 -18 -20
-21 -48 -7 -56 5 -3 7 -15 4 -26 -4 -16 -8 -18 -19 -9 -11 9 -14 8 -14 -5 0
-9 -5 -16 -11 -16 -6 0 -9 9 -6 20 6 24 6 24 -38 6 -19 -8 -35 -20 -35 -26 0
-6 -12 -15 -26 -20 -16 -7 -24 -16 -21 -24 3 -8 0 -20 -8 -26 -19 -16 -86 5
-79 24 8 20 -28 30 -42 12 -15 -21 -35 -20 -119 8 -78 26 -96 46 -40 46 25 0
34 4 29 12 -5 8 3 9 29 5 45 -7 48 8 10 41 -28 24 -32 24 -108 2 -22 -7 -56
-13 -75 -15 -19 -2 -57 -8 -85 -13 -55 -11 -117 -3 -179 23 -21 9 -48 14 -60
11 -28 -7 -229 -230 -238 -266 -5 -15 -15 -33 -23 -40 -8 -7 -15 -18 -15 -26
0 -7 -24 -32 -54 -56 -30 -24 -54 -47 -52 -53 1 -5 39 -11 83 -12 l80 -3 63
72 c58 67 72 77 193 136 130 64 162 69 138 24 -15 -27 -4 -51 26 -58 28 -7 19
-21 -17 -26 -18 -2 -31 -15 -45 -44 -11 -22 -32 -54 -46 -71 -14 -17 -31 -45
-39 -62 -11 -27 -17 -31 -34 -25 -38 12 -166 -1 -166 -17 0 -5 5 -9 12 -9 6 0
9 -2 6 -5 -9 -9 -38 6 -38 20 0 9 -24 13 -84 14 -99 1 -227 18 -240 31 -24 24
-96 0 -96 -31 1 -10 4 -9 14 4 7 9 21 17 30 17 9 0 16 -8 16 -17 0 -15 -2 -16
-10 -3 -7 11 -10 12 -10 2 0 -8 -10 -22 -22 -32 -20 -16 -21 -19 -6 -25 12 -5
14 -13 8 -34 -7 -27 -7 -27 38 -30 26 -1 52 -7 59 -12 7 -6 18 -7 25 -2 7 4
27 8 44 8 36 0 36 -20 0 -36 -15 -6 -7 -8 29 -4 125 11 156 12 161 4 3 -5 -2
-9 -10 -9 -31 0 -15 -18 19 -22 39 -4 41 -2 20 26 -21 28 -19 33 21 46 21 7
40 22 47 37 10 23 15 24 55 18 38 -6 44 -4 39 9 -7 17 8 22 18 7 9 -16 -35
-39 -66 -34 -33 5 -37 -4 -11 -23 20 -16 52 -18 52 -5 0 6 12 8 28 7 15 -2 33
-4 41 -5 11 -1 10 -5 -4 -15 -11 -8 -23 -12 -27 -10 -5 3 -8 -1 -8 -10 0 -8
-6 -16 -12 -19 -7 -2 -9 -8 -5 -13 4 -5 11 -3 15 3 8 13 77 31 112 29 14 0 26
4 27 9 2 6 -7 10 -20 11 -38 1 -47 4 -47 13 0 6 19 7 43 4 23 -3 65 -5 92 -4
28 1 70 -5 94 -14 49 -17 118 -20 141 -5 12 8 11 10 -7 10 -31 0 -29 15 2 16
14 1 25 -2 25 -8 0 -6 13 -7 31 -3 21 5 34 3 39 -5 5 -9 13 -9 27 -1 11 5 46
13 77 16 32 2 63 8 69 12 6 3 25 8 41 9 17 1 49 8 71 14 22 7 87 13 145 14
125 3 150 10 151 39 1 17 2 18 6 5 5 -20 18 -23 28 -8 4 6 11 8 16 5 5 -4 9 1
9 9 0 11 9 16 28 16 15 0 49 11 76 25 27 14 64 25 82 25 18 0 34 5 36 12 3 7
12 6 30 -6 26 -17 27 -17 45 4 45 52 84 90 93 90 5 0 26 16 47 36 21 20 54 45
75 56 42 22 45 29 23 48 -13 11 -21 10 -43 -7 -47 -33 -49 -34 -54 -8 -4 20 1
28 31 43 20 10 49 22 66 26 28 7 29 7 13 -11 -16 -18 -15 -19 13 -32 52 -23
83 11 39 42 -21 14 -21 14 1 20 20 5 21 8 8 23 -12 16 -12 17 3 11 10 -3 20
-2 23 3 9 14 42 12 48 -2 4 -8 6 -7 6 3 1 23 51 42 51 19 0 -5 -7 -10 -15 -10
-8 0 -15 -4 -15 -10 0 -5 5 -10 10 -10 6 0 10 -5 10 -11 0 -6 -7 -8 -16 -5
-18 7 -70 -29 -55 -38 5 -3 12 1 15 10 4 11 14 14 35 9 17 -3 32 -2 36 4 3 6
16 11 29 11 40 0 116 31 116 47 0 11 7 14 26 9 15 -4 32 -2 40 5 7 6 21 8 31
5 9 -4 20 -1 25 6 6 9 10 10 16 2 4 -6 22 -11 40 -11 30 0 50 -8 41 -17 -9
-10 -171 -27 -192 -20 -12 3 -19 3 -15 -1 10 -10 -47 -40 -92 -50 -63 -13
-175 -56 -195 -75 -25 -23 -90 -52 -99 -43 -3 4 -6 0 -6 -9 0 -8 -23 -34 -51
-59 -29 -24 -71 -64 -95 -88 -31 -32 -48 -42 -63 -38 -19 5 -37 -16 -32 -37 5
-23 -23 -67 -48 -73 -14 -3 -30 -8 -36 -12 -11 -6 -31 -10 -60 -13 -11 -1 -29
-8 -40 -15 -11 -7 -29 -13 -41 -13 -13 0 -31 -12 -43 -27 -17 -23 -22 -25 -30
-13 -12 17 1 35 44 62 l30 18 -35 2 c-83 4 -118 3 -175 -5 -102 -13 -135 -15
-141 -6 -12 20 -26 8 -20 -16 5 -20 2 -27 -16 -34 -13 -5 -24 -5 -26 0 -6 15
-32 10 -32 -5 0 -12 -5 -12 -30 -3 -25 10 -33 9 -40 -3 -7 -11 -4 -17 8 -22
11 -4 12 -7 3 -7 -8 -1 -29 11 -48 25 -38 29 -61 23 -25 -6 12 -10 22 -21 22
-24 0 -11 -18 -6 -32 7 -19 19 -46 28 -53 17 -3 -5 5 -16 17 -25 l23 -17 -25
8 c-14 4 -30 14 -37 23 -10 14 -13 14 -30 -2 -21 -18 -48 -24 -38 -7 12 19
-26 23 -46 4 -14 -12 -23 -14 -30 -7 -7 7 -19 3 -37 -14 l-27 -25 -5 28 c-4
24 -14 32 -57 48 -31 11 -63 16 -78 12 -27 -7 -35 -26 -10 -26 33 0 12 -18
-27 -24 -104 -15 -118 -19 -118 -28 0 -7 -16 -9 -40 -5 -22 3 -55 1 -75 -3
-19 -4 -68 -4 -108 0 -39 5 -137 11 -216 13 l-145 5 -50 -30 c-28 -16 -82 -49
-121 -73 -38 -24 -95 -58 -126 -75 -31 -17 -103 -67 -160 -111 -177 -136 -171
-132 -219 -118 -33 10 -51 10 -91 0 -28 -7 -52 -11 -55 -9 -5 6 90 68 105 68
22 0 308 137 317 152 7 11 -14 10 -38 -3 -11 -6 -32 -13 -46 -15 -15 -3 -53
-11 -85 -19 -32 -8 -61 -14 -65 -13 -17 5 -98 -28 -267 -108 -92 -44 -106 -49
-85 -35 8 5 11 13 7 17 -4 4 -13 2 -19 -4 -19 -19 -30 -14 -13 6 9 9 26 30 38
46 19 23 31 29 65 29 23 0 47 6 53 14 7 7 20 11 30 8 10 -4 33 0 51 9 18 8 47
17 65 21 48 10 56 59 10 69 -19 4 -18 4 3 4 14 -1 38 4 53 10 15 7 31 11 35
10 18 -3 112 42 112 54 0 17 40 47 55 42 8 -4 15 -1 15 5 0 6 17 11 38 11 39
0 104 41 89 56 -4 5 -11 3 -16 -4 -4 -6 -42 -21 -85 -32 -83 -21 -106 -33
-106 -56 0 -8 -1 -14 -3 -14 -26 0 -129 -26 -152 -38 -39 -21 -214 -43 -239
-30 -12 6 -47 6 -100 -2 -101 -14 -164 -16 -193 -6 -13 4 -23 4 -23 -1 0 -11
46 -122 54 -130 3 -3 6 -14 6 -24 0 -10 28 -51 63 -90 84 -98 146 -213 163
-304 4 -22 11 -43 16 -46 5 -3 35 4 68 15 l59 21 30 -23 c17 -12 37 -22 46
-22 10 0 13 -5 9 -12 -5 -8 -2 -9 9 -5 11 4 17 1 17 -7 0 -7 9 -21 20 -31 11
-10 20 -24 20 -32 0 -7 4 -13 9 -13 5 0 12 -7 15 -16 4 -10 2 -13 -7 -8 -6 4
-1 -5 12 -19 13 -14 36 -29 52 -32 18 -4 32 -17 40 -35 8 -16 18 -26 26 -23 7
3 13 0 13 -6 0 -6 7 -11 17 -11 9 0 32 -12 51 -27 27 -20 34 -23 29 -9 -4 10
-7 22 -7 27 0 5 -6 9 -13 9 -14 0 -152 138 -145 145 7 7 48 -7 48 -17 0 -19
31 -40 48 -33 16 6 15 8 -3 20 -11 8 -25 19 -32 25 -7 5 -17 10 -24 10 -8 0
-7 5 2 16 16 19 15 124 -1 182 -12 46 -12 52 0 52 5 0 19 -20 30 -44 12 -25
43 -61 73 -85 51 -42 52 -42 58 -19 4 12 7 42 8 66 1 48 25 102 45 102 7 0 30
-13 51 -30 37 -29 72 -43 47 -18 -19 19 -14 83 10 139 19 42 31 55 71 75 26
14 50 30 52 37 2 7 6 25 10 40 9 45 57 60 147 46 82 -13 172 -5 205 16 28 19
30 19 36 -3 3 -15 18 -20 71 -26 36 -3 72 -9 80 -12 8 -3 29 8 48 25 39 34 55
31 32 -4 -14 -22 -14 -25 8 -39 14 -9 46 -19 72 -22 47 -7 48 -6 99 44 53 51
172 119 181 103 8 -13 -78 -97 -122 -120 -47 -24 -69 -69 -51 -104 23 -46 99
-90 145 -85 24 3 30 -2 39 -27 16 -47 24 -55 55 -55 25 0 33 8 62 61 18 34 50
81 73 104 22 23 33 32 24 21 -20 -25 -69 -121 -79 -156 -5 -14 -11 -33 -15
-42 -5 -14 -2 -18 14 -18 14 0 23 -8 27 -25 3 -14 11 -25 16 -25 6 0 7 8 4 17
-7 16 52 148 61 139 7 -6 -17 -76 -32 -99 -9 -12 -11 -39 -8 -78 4 -35 1 -78
-6 -102 -26 -90 -29 -103 -36 -149 -4 -32 -11 -48 -21 -48 -8 0 -14 -6 -14
-12 0 -7 -3 -23 -6 -35 -5 -19 -3 -21 18 -16 23 5 23 5 3 -10 -11 -9 -26 -17
-32 -17 -17 0 -17 -1 10 -49 13 -23 26 -38 30 -35 3 3 3 -4 0 -16 -3 -12 -9
-18 -12 -13 -27 32 -61 83 -61 90 0 5 -13 22 -30 38 -20 19 -30 24 -30 14 0
-8 5 -20 12 -27 8 -8 9 -12 1 -12 -8 0 -8 -10 -1 -34 9 -27 8 -42 -4 -68 -24
-52 -29 -105 -11 -123 8 -9 15 -35 16 -60 1 -25 4 -45 7 -45 3 0 19 17 36 37
26 31 34 35 47 25 13 -11 17 -3 31 59 9 39 16 80 16 90 0 11 5 19 11 19 9 0
10 -18 5 -62 -13 -106 -21 -142 -42 -173 -19 -26 -17 -36 4 -28 27 10 -15 -34
-60 -63 -21 -13 -40 -35 -44 -49 -3 -14 -13 -25 -21 -25 -8 0 -36 -20 -62 -44
-76 -73 -126 -116 -133 -116 -5 0 -27 -18 -50 -39 -46 -44 -78 -58 -78 -34 0
12 -3 12 -22 -1 -34 -24 -53 -20 -87 19 -17 19 -34 35 -39 35 -5 0 -26 11 -47
25 l-37 26 22 -30 c11 -17 25 -33 30 -36 6 -4 10 -16 10 -29 0 -13 12 -31 30
-44 18 -14 27 -28 24 -37 -7 -18 -46 -20 -42 -2 2 7 -1 12 -7 12 -5 0 -9 -8
-8 -17 2 -10 0 -18 -3 -18 -11 0 -81 38 -136 73 -32 21 -58 35 -58 32 0 -3 14
-20 30 -38 17 -18 33 -40 36 -50 6 -19 53 -47 79 -47 10 0 15 -7 13 -17 -2
-13 -14 -17 -46 -18 -23 -1 -42 3 -42 9 0 5 -8 1 -19 -8 -15 -14 -29 -16 -70
-10 -35 4 -51 3 -51 -5 0 -6 9 -11 21 -11 12 0 23 -8 26 -20 3 -11 10 -20 15
-20 5 0 6 -4 3 -10 -8 -12 -3 -13 29 0 30 11 42 -2 19 -21 -9 -8 -18 -13 -20
-11 -1 1 -18 2 -35 2 l-33 0 25 -20 c14 -11 44 -29 66 -40 23 -11 49 -29 59
-40 21 -23 43 -20 166 21 48 16 98 29 111 29 51 0 93 26 107 67 24 68 85 185
111 213 45 48 148 130 212 167 35 20 69 43 76 50 7 7 19 13 25 13 19 0 201 82
209 94 4 6 8 20 8 31 0 29 33 47 65 35 55 -21 145 -5 145 25 0 18 18 19 57 4
18 -7 70 -8 152 -4 l124 7 -6 49 c-3 27 -10 55 -14 62 -4 6 -9 23 -11 37 -2
14 -17 53 -33 87 -22 46 -34 61 -45 56 -17 -6 -74 43 -74 64 0 7 -9 13 -21 13
-18 0 -20 4 -14 29 8 38 -15 52 -73 44 -24 -3 -42 -2 -42 4 0 5 -18 16 -40 23
-22 7 -40 17 -40 23 0 5 -7 7 -15 3 -18 -7 -50 37 -41 59 6 16 -19 78 -43 108
-8 9 -11 17 -7 17 5 0 -1 16 -13 36 -12 19 -21 38 -21 41 0 3 28 -22 63 -56
34 -33 91 -80 127 -103 36 -24 66 -50 68 -58 5 -23 52 -80 65 -80 7 0 14 12
15 26 2 30 -38 81 -122 153 -28 24 -52 47 -54 51 -6 14 102 -20 140 -45 21
-14 43 -25 51 -25 33 0 216 -137 229 -172 4 -10 4 -38 -1 -60 -7 -30 -6 -49 3
-67 8 -14 17 -42 21 -61 4 -19 18 -58 30 -86 13 -29 21 -61 18 -72 -3 -13 4
-33 17 -52 21 -29 21 -32 6 -70 -15 -38 -13 -70 4 -70 13 0 40 30 40 44 0 21
82 116 100 116 16 0 12 -22 -10 -58 -52 -85 -75 -216 -45 -256 8 -11 15 -28
15 -39 0 -10 5 -15 10 -12 15 9 25 -24 11 -38 -6 -6 -11 -19 -11 -29 0 -10
-10 -22 -22 -27 -33 -13 -98 -87 -109 -123 -10 -37 -6 -45 12 -24 36 41 70 76
74 76 14 0 1 -26 -27 -52 l-31 -29 26 6 c21 6 27 4 27 -9 0 -9 -7 -19 -15 -22
-8 -4 -15 -13 -15 -21 0 -13 3 -13 15 -3 13 10 14 7 11 -26 -7 -60 -21 -98
-50 -129 -14 -15 -26 -35 -26 -44 -1 -17 -23 -51 -34 -51 -15 0 -4 44 24 93
33 58 40 107 15 107 -10 0 -15 -10 -15 -27 0 -32 -31 -103 -60 -140 -20 -26
-27 -73 -11 -73 15 0 0 -41 -25 -66 -13 -12 -24 -29 -24 -36 -1 -7 -19 -26
-40 -43 -21 -16 -39 -36 -40 -42 0 -7 -5 -13 -10 -13 -12 0 3 35 20 45 9 6 62
80 80 115 25 46 -12 16 -64 -52 -30 -40 -69 -90 -86 -111 -18 -20 -29 -37 -25
-37 16 0 91 24 99 32 6 4 22 8 37 8 15 0 60 14 100 31 41 17 83 33 94 36 11 3
39 23 62 45 24 21 51 38 61 38 11 0 30 8 43 19 13 10 38 21 55 25 39 9 57 27
82 87 22 52 35 59 97 59 40 0 50 5 100 55 87 84 93 77 35 -40 -28 -57 -36 -81
-27 -87 8 -5 6 -9 -6 -14 -9 -3 -17 -12 -17 -19 0 -8 -9 -16 -19 -20 -11 -3
-27 -17 -36 -31 -9 -14 -27 -29 -41 -34 -13 -5 -24 -14 -24 -20 0 -6 -14 -17
-31 -24 -24 -10 -36 -25 -49 -59 l-17 -45 23 -5 c24 -4 74 31 74 53 0 5 5 11
10 11 6 1 14 2 18 3 17 2 47 40 68 87 13 27 29 49 37 49 8 0 18 9 23 21 6 12
28 27 49 35 51 17 56 17 49 -1 -4 -9 0 -15 10 -15 9 0 16 -4 16 -9 0 -15 -23
-28 -60 -35 -25 -4 -41 -15 -53 -35 -9 -16 -28 -32 -42 -35 -14 -4 -25 -11
-25 -17 0 -6 7 -8 16 -5 9 3 2 -11 -16 -34 -17 -22 -35 -40 -40 -40 -5 0 -12
-9 -15 -20 -5 -17 -12 -20 -39 -14 -26 4 -35 2 -40 -11 -9 -24 3 -37 27 -29
20 6 21 5 7 -12 -8 -10 -18 -21 -22 -24 -3 -3 -9 -21 -13 -41 -8 -45 11 -62
20 -18 7 30 7 31 22 9 32 -46 -4 -190 -47 -190 -6 0 -13 -7 -16 -15 -9 -22
-19 -18 -30 13 -14 39 -20 16 -14 -53 l5 -60 23 22 c37 38 35 26 -6 -29 -21
-29 -50 -78 -64 -108 -18 -40 -45 -74 -100 -123 -41 -37 -80 -67 -86 -67 -5 0
-12 -7 -16 -15 -6 -17 -27 -21 -23 -4 1 6 -3 13 -10 16 -7 3 -10 -3 -6 -15 6
-26 -31 -52 -77 -52 -38 0 -107 -29 -155 -63 -16 -13 -70 -42 -118 -66 -72
-36 -91 -41 -98 -30 -6 10 -9 10 -9 2 0 -7 -6 -13 -14 -13 -8 0 -17 -8 -20
-17 -6 -14 -9 -15 -16 -3 -7 11 -11 11 -24 1 -11 -9 -48 -12 -131 -9 -63 1
-115 2 -115 2 0 -9 167 -58 248 -74 145 -28 535 -28 598 0 23 10 45 23 48 29
4 6 16 11 27 11 30 0 195 87 213 111 8 12 32 33 54 48 22 14 75 62 118 106 44
44 97 96 119 116 55 50 103 107 111 133 3 11 37 53 75 92 38 40 69 77 69 83 0
6 16 29 36 51 20 22 45 57 56 77 11 21 27 50 34 65 8 14 36 36 62 48 26 12 72
41 102 64 66 49 129 80 190 95 l45 10 42 -47 c58 -65 67 -103 47 -188 -8 -38
-24 -109 -35 -157 -11 -48 -28 -105 -39 -125 -11 -20 -20 -42 -20 -49 0 -18
-64 -171 -98 -233 -17 -30 -40 -75 -51 -100 -12 -25 -59 -82 -106 -130 -47
-46 -85 -88 -85 -93 0 -21 220 156 315 254 28 28 69 65 93 81 25 17 42 37 42
48 0 11 5 19 11 17 12 -2 91 93 115 140 9 17 27 36 40 42 13 6 24 17 24 24 0
8 15 30 34 49 35 36 62 78 58 91 -1 4 2 7 6 7 5 0 16 18 26 41 12 26 23 38 32
35 9 -3 11 0 7 11 -4 10 -2 14 4 10 6 -4 10 1 9 10 0 10 5 18 13 18 8 0 16 6
19 14 3 8 0 11 -7 7 -16 -10 -14 6 5 32 8 12 22 22 30 22 12 0 12 4 4 20 -9
17 -8 20 9 20 15 0 22 9 27 35 3 19 11 35 16 35 6 0 7 7 4 16 -4 10 8 47 28
88 19 39 36 80 38 91 2 11 13 25 26 30 13 6 25 21 28 35 3 14 10 37 15 51 6
14 7 38 4 52 -5 19 -1 35 15 57 12 16 18 30 14 30 -4 0 0 6 10 13 20 14 25 57
13 93 -6 17 -4 22 9 20 12 -1 17 11 20 53 2 30 0 59 -5 65 -16 21 -21 63 -8
79 6 8 23 17 37 19 34 4 50 41 50 118 -1 67 -15 100 -43 100 -8 0 -18 7 -21
16 -10 26 -7 28 14 9 18 -16 20 -16 20 -2 0 10 -8 25 -17 35 -24 25 -66 102
-60 109 3 2 10 -5 17 -16 19 -36 30 -23 15 19 -8 22 -12 54 -10 71 5 37 31 79
49 79 11 0 11 7 -2 35 -9 19 -20 35 -26 35 -5 0 -1 9 9 20 18 20 18 21 -2 42
-24 24 -52 16 -31 -9 11 -14 9 -14 -19 0 -19 10 -33 26 -35 39 -2 16 -9 22
-21 20 -24 -4 -57 25 -57 50 0 19 33 58 50 58 5 0 14 -9 20 -20 13 -25 42 -27
33 -2 -5 13 -2 12 13 -4 10 -12 32 -25 47 -28 l29 -7 -23 41 c-20 35 -27 40
-49 35 -28 -6 -66 9 -95 39 -15 15 -16 19 -4 26 7 5 11 11 9 12 -34 26 -71 41
-103 43 -51 3 -68 27 -27 38 49 13 34 18 -37 14 -42 -3 -73 -1 -82 6 -10 9
-16 7 -26 -6 -6 -9 -15 -14 -18 -10 -4 3 -12 1 -19 -4 -13 -11 -116 -2 -137
12 -36 22 30 36 70 15 24 -13 25 -3 2 23 -13 15 -15 21 -5 24 6 3 12 11 12 20
0 31 35 8 40 -27 5 -31 7 -32 13 -13 13 35 78 35 150 -1 106 -52 82 -12 -47
79 -69 49 -86 54 -86 25 0 -12 -4 -18 -10 -15 -5 3 -10 17 -10 30 0 18 5 23
23 21 13 -2 30 -6 38 -10 8 -4 -3 8 -24 28 -23 21 -36 40 -31 47 4 7 3 9 -3 6
-16 -10 -35 19 -28 43 7 21 -4 27 -21 10 -19 -19 -36 13 -25 44 9 21 7 27 -9
36 -24 13 -40 13 -40 -1 0 -6 6 -9 13 -6 7 3 13 -6 14 -24 2 -20 -3 -29 -12
-29 -8 0 -15 7 -15 15 0 9 -11 20 -25 25 -30 12 -33 30 -4 30 19 0 18 3 -11
40 -17 22 -37 40 -43 40 -6 0 -1 -10 11 -23 27 -29 27 -33 2 -40 -27 -7 -53
20 -46 48 4 16 0 25 -17 33 -39 20 -131 52 -135 47 -7 -7 -42 14 -42 25 0 6
-16 33 -35 60 -25 36 -31 50 -20 50 8 0 15 -4 15 -8 0 -8 57 -45 62 -40 2 2
17 -9 33 -24 16 -16 41 -28 54 -28 13 0 48 -14 77 -30 33 -19 70 -32 98 -34
45 -2 61 -9 61 -26 0 -14 81 -69 112 -76 l28 -7 -27 26 c-28 26 -37 57 -17 57
5 0 7 5 4 10 -3 6 -15 10 -27 10 -14 0 -18 5 -14 15 4 10 -7 21 -35 36 -29 14
-39 25 -35 36 4 8 1 22 -5 29 -14 18 -5 31 40 53 48 25 72 52 52 59 -19 6 44
32 79 32 71 0 235 -103 269 -168 7 -15 51 -64 98 -109 46 -45 90 -98 99 -118
8 -20 35 -62 61 -93 59 -74 57 -72 49 -37 -3 17 -10 52 -16 79 -6 27 -14 54
-19 60 -4 6 -13 34 -20 61 -13 56 -52 145 -63 145 -4 0 -5 6 -2 14 7 18 -35
76 -54 76 -12 0 -11 5 4 21 14 16 16 23 6 26 -6 3 -10 9 -6 14 3 5 -2 16 -10
25 -9 9 -14 20 -11 25 6 8 -11 48 -24 59 -11 9 -68 95 -74 113 -4 9 -15 17
-26 17 -24 0 -38 19 -21 30 8 5 9 10 2 14 -6 3 -13 0 -16 -6 -6 -17 -68 52
-62 69 6 16 -20 37 -38 30 -8 -3 -17 -3 -21 1 -4 4 -18 7 -31 7 -18 1 -23 -3
-18 -15 3 -8 9 -23 11 -33 4 -12 11 -16 24 -12 12 4 19 2 19 -7 0 -7 10 -25
23 -39 30 -34 49 -69 38 -69 -5 0 -21 15 -35 33 -23 29 -26 30 -26 10 0 -12
10 -31 22 -43 12 -11 19 -22 17 -25 -13 -12 -76 62 -83 96 -6 32 -34 73 -37
55 -1 -3 -2 -10 -3 -16 0 -5 -7 -15 -14 -22 -10 -10 -15 -9 -28 4 -17 17 -12
38 10 38 7 0 19 12 27 28 8 15 22 34 31 43 10 9 18 21 18 28 0 6 5 11 10 11 6
0 10 15 10 33 0 24 3 28 10 17 7 -11 12 -12 20 -4 18 18 -25 79 -83 116 -28
18 -55 32 -59 31 -4 -2 -15 8 -25 20 -29 36 -41 40 -65 17 l-22 -20 32 -12
c35 -13 37 -19 21 -49 -7 -14 -16 -18 -30 -14 -11 4 -19 2 -19 -4 0 -6 -7 -11
-15 -11 -26 0 -16 -17 20 -34 43 -21 59 -13 51 25 -6 31 4 38 24 14 9 -11 9
-22 -1 -49 -10 -27 -10 -41 -1 -61 12 -26 38 -36 28 -10 -3 10 1 15 14 15 37
0 35 -29 -3 -43 -5 -1 -4 -15 2 -30 9 -24 8 -27 -9 -27 -10 0 -21 -9 -25 -19
-5 -18 -9 -18 -38 -8 -39 15 -145 75 -152 88 -3 4 -26 17 -50 28 -25 11 -45
25 -45 30 0 14 17 14 25 1 8 -12 75 -13 75 -1 0 15 47 22 76 11 41 -16 40 -5
-2 19 -27 16 -39 19 -44 10 -5 -8 -18 -9 -36 -4 -16 4 -45 8 -64 8 -29 2 -35
-2 -35 -18 0 -11 -4 -20 -10 -19 -24 1 -73 17 -109 35 -31 16 -41 17 -47 7 -6
-10 -22 -8 -76 9 -37 12 -78 25 -91 28 -12 4 -20 10 -17 15 3 5 -3 13 -12 19
-10 5 -15 13 -11 17 4 4 14 2 22 -5 11 -9 15 -9 19 1 5 16 18 6 21 -18 3 -23
26 -31 26 -10 0 20 19 21 26 1 4 -8 12 -15 19 -15 7 0 15 -5 17 -11 2 -7 13
-9 27 -4 16 5 20 10 13 17 -6 6 -8 23 -5 38 4 23 0 31 -26 46 -17 10 -31 24
-31 30 0 7 -7 15 -16 18 -13 5 -14 9 -4 21 10 12 10 15 -1 16 -77 4 -96 2
-111 -10 -9 -8 -14 -21 -10 -30 7 -17 4 -15 -66 47 -20 19 -38 29 -40 23 -5
-16 -27 -13 -42 4 -10 12 -10 18 0 30 10 13 9 15 -9 15 -11 0 -21 -6 -21 -12
0 -8 -17 -14 -47 -15 -32 -2 -52 -8 -63 -21 -23 -29 -61 -48 -105 -55 -43 -6
-61 3 -83 41 -10 18 -10 22 0 22 8 0 5 7 -6 15 -19 15 -19 15 2 15 13 0 26 -8
29 -17 11 -28 36 -50 40 -36 3 7 11 9 19 6 8 -3 14 0 14 6 0 6 16 11 35 11 29
0 37 5 45 26 7 18 16 25 28 22 10 -3 27 1 38 9 16 12 17 15 4 23 -8 5 -31 10
-50 10 -19 0 -42 5 -50 10 -13 9 -13 11 0 21 13 9 12 10 -2 5 -12 -4 -18 0
-18 11 0 9 8 22 18 29 10 8 12 13 5 14 -7 0 -13 5 -13 11 0 6 9 9 20 6 13 -3
20 0 20 9 0 18 14 18 30 -1 10 -12 10 -15 -3 -15 -14 0 -14 -3 -1 -27 19 -37
18 -43 -8 -44 -18 -1 -19 -2 -5 -6 23 -6 47 14 40 33 -4 12 0 14 21 8 23 -5
27 -3 32 25 4 17 11 28 16 25 5 -3 12 3 15 15 3 12 13 21 22 21 20 1 50 40 57
77 4 24 -1 31 -32 51 -37 24 -42 42 -5 23 13 -7 22 -8 26 -1 3 5 -1 10 -9 10
-9 0 -16 7 -16 15 0 8 4 15 9 15 16 0 5 35 -15 45 -11 6 -36 20 -55 33 -34 20
-39 21 -70 8 -19 -8 -43 -24 -54 -36 -11 -12 -32 -28 -47 -36 -24 -12 -27 -12
-22 0 3 8 15 16 26 19 14 4 19 11 15 21 -4 10 -1 16 8 16 8 0 15 5 15 10 0 6
6 10 13 10 34 1 38 16 17 64 -19 46 -22 117 -5 134 13 13 35 74 35 98 0 19 -5
24 -27 25 -27 1 -27 1 -4 8 19 5 21 8 10 18 -8 6 -31 14 -51 18 -40 8 -52 25
-19 25 11 0 26 9 34 20 8 11 17 17 20 13 15 -14 6 54 -9 75 -14 21 -18 22 -33
8 -14 -13 -19 -13 -35 0 -19 13 -18 14 10 15 23 1 25 3 6 6 -12 2 -29 18 -38
34 -12 25 -18 28 -29 19 -12 -10 -24 -8 -55 8 -23 11 -36 23 -31 27 6 3 11 3
11 -1 0 -3 7 -1 16 7 16 13 25 7 38 -26 2 -6 8 -6 16 2 14 13 5 107 -10 98 -4
-3 -6 3 -3 14 6 25 -24 84 -39 75 -7 -5 -9 0 -5 15 4 17 2 21 -9 17 -9 -4 -20
7 -32 31 -27 58 -38 51 -41 -24z m69 -38 c0 -2 -10 -10 -22 -16 -21 -11 -22
-11 -9 4 13 16 31 23 31 12z m30 -35 c0 -5 -4 -10 -10 -10 -5 0 -10 5 -10 10
0 6 5 10 10 10 6 0 10 -4 10 -10z m-20 -32 c6 -13 16 -31 22 -41 11 -14 10
-19 -2 -27 -19 -12 -30 0 -34 33 -1 14 -8 33 -16 41 -10 13 -10 16 4 16 9 0
21 -10 26 -22z m-50 -244 c0 -17 12 -18 27 -3 8 8 17 6 33 -9 l22 -20 -22 -7
c-13 -4 -19 -12 -16 -21 3 -7 1 -16 -5 -19 -14 -9 1 -27 17 -21 14 6 20 -9 6
-18 -12 -7 -45 22 -37 33 3 6 -1 21 -9 33 -9 12 -16 17 -16 10 0 -6 -4 -12
-10 -12 -5 0 -10 18 -10 41 0 24 4 38 10 34 6 -3 10 -13 10 -21z m128 -53 c3
-8 -3 -11 -14 -9 -14 2 -19 -3 -18 -21 l1 -23 -18 23 c-24 31 -24 37 4 42 30
6 40 3 45 -12z m-3 -31 c3 -5 2 -10 -4 -10 -5 0 -13 5 -16 10 -3 6 -2 10 4 10
5 0 13 -4 16 -10z m75 -60 c0 -5 -5 -10 -11 -10 -5 0 -7 5 -4 10 3 6 8 10 11
10 2 0 4 -4 4 -10z m-620 -310 c0 -5 -2 -10 -4 -10 -3 0 -8 5 -11 10 -3 6 -1
10 4 10 6 0 11 -4 11 -10z m696 -66 c-3 -9 -6 -17 -6 -20 0 -2 -15 -11 -32
-20 l-33 -17 28 28 c15 15 27 32 27 36 0 5 5 9 11 9 6 0 8 -7 5 -16z m-86 -97
c0 -8 -14 -27 -31 -43 -17 -16 -42 -41 -55 -55 -17 -18 -32 -25 -45 -22 -19 5
-19 7 5 23 15 9 23 19 20 22 -3 4 4 12 16 18 11 6 25 22 30 36 11 28 27 31 33
7 4 -15 6 -15 12 5 8 25 15 29 15 9z m110 -44 c-1 -17 -28 -43 -44 -43 -10 0
-24 -7 -32 -15 -9 -8 -20 -15 -25 -15 -13 0 22 33 54 49 15 8 27 18 27 23 0 4
5 8 10 8 6 0 10 -3 10 -7z m-310 -8 c0 -2 -10 -10 -22 -16 -21 -11 -22 -11 -9
4 13 16 31 23 31 12z m-435 -55 c-3 -5 -11 -10 -16 -10 -6 0 -7 5 -4 10 3 6
11 10 16 10 6 0 7 -4 4 -10z m496 -35 c8 4 3 -2 -11 -13 -13 -12 -27 -17 -30
-13 -3 4 -12 10 -20 13 -11 4 -8 8 10 16 17 6 27 6 31 -1 4 -5 13 -6 20 -2z
m-471 -29 c0 -5 -7 -3 -15 4 -8 7 -12 17 -9 22 7 10 24 -9 24 -26z m-224 -8
c-1 -22 -7 -34 -19 -36 -20 -4 -23 -22 -3 -22 9 0 12 -7 9 -20 -3 -11 -9 -20
-13 -20 -13 0 -21 51 -11 64 6 7 8 15 5 19 -7 7 14 47 25 47 5 0 8 -15 7 -32z
m211 -34 c1 -16 -1 -21 -3 -11 -6 20 -15 22 -33 5 -8 -7 -12 -8 -9 -3 3 6 8
18 11 28 10 27 32 15 34 -19z m233 32 c0 -2 -7 -7 -16 -10 -8 -3 -12 -2 -9 4
6 10 25 14 25 6z m179 -5 c9 -6 10 -11 2 -15 -6 -4 -11 -2 -11 5 0 7 -8 5 -20
-6 -21 -19 -28 -7 -8 13 14 14 19 15 37 3z m-965 -26 c-4 -8 -10 -12 -15 -9
-14 8 -10 24 6 24 9 0 12 -6 9 -15z m901 -14 c-3 -6 -11 -11 -17 -11 -6 0 -6
6 2 15 14 17 26 13 15 -4z m-805 0 c0 -6 -4 -13 -10 -16 -5 -3 -10 1 -10 9 0
9 5 16 10 16 6 0 10 -4 10 -9z m320 2 c-1 -16 -28 -43 -42 -43 -8 0 -20 -6
-27 -12 -11 -11 -11 -9 -2 9 6 12 20 25 31 28 11 3 20 11 20 16 0 5 5 9 10 9
6 0 10 -3 10 -7z m650 -12 c0 -6 -4 -13 -10 -16 -5 -3 -10 1 -10 9 0 9 5 16
10 16 6 0 10 -4 10 -9z m80 -1 c0 -5 -9 -10 -20 -10 -11 0 -20 5 -20 10 0 6 9
10 20 10 11 0 20 -4 20 -10z m-1030 -20 c0 -11 -7 -20 -15 -20 -18 0 -19 12
-3 28 16 16 18 15 18 -8z m44 -18 c-4 -12 -10 -22 -15 -22 -11 0 -12 44 -2 53
12 12 23 -8 17 -31z m-94 6 c0 -6 7 -19 15 -28 13 -14 14 -22 4 -44 -7 -14
-16 -26 -21 -26 -12 0 -10 14 5 29 10 10 8 16 -10 31 -23 18 -29 40 -17 53 9
9 24 -1 24 -15z m1090 2 c0 -5 -4 -10 -10 -10 -5 0 -10 5 -10 10 0 6 5 10 10
10 6 0 10 -4 10 -10z m-976 -15 c-4 -8 -8 -15 -10 -15 -2 0 -4 7 -4 15 0 8 4
15 10 15 5 0 7 -7 4 -15z m836 -2 c0 -5 -25 -25 -54 -46 -29 -21 -59 -50 -66
-63 -12 -22 -30 -33 -30 -17 0 17 57 77 98 103 52 33 52 33 52 23z m-794 -19
c-3 -9 -6 -19 -6 -24 0 -4 -27 -38 -60 -74 -33 -37 -60 -73 -60 -82 0 -8 -4
-12 -10 -9 -20 12 -9 42 30 80 22 21 40 47 40 56 0 10 4 21 10 24 6 4 7 -1 4
-12 -3 -10 5 -1 17 20 23 37 47 52 35 21z m91 -10 c1 -18 -2 -23 -9 -16 -6 6
-8 18 -5 26 9 22 12 20 14 -10z m73 5 c-7 -11 -14 -18 -17 -15 -8 8 5 36 17
36 7 0 7 -6 0 -21z m356 -11 c-9 -12 -16 -29 -16 -38 0 -8 -9 -21 -20 -28 -11
-7 -20 -18 -20 -24 0 -13 -79 -88 -92 -88 -5 0 -8 -4 -8 -10 0 -5 7 -10 15
-10 8 0 15 -4 15 -8 0 -5 -13 -9 -30 -9 -35 0 -37 6 -10 49 22 37 25 48 10 48
-5 0 -10 -7 -10 -15 0 -18 -40 -56 -52 -49 -9 6 -11 -8 -8 -43 1 -18 -2 -21
-15 -17 -10 4 -21 1 -26 -7 -6 -9 -9 -10 -9 -2 0 7 8 17 18 22 9 6 12 11 6 11
-16 0 -26 58 -14 81 14 26 40 24 40 -2 0 -36 25 -5 56 69 34 82 48 100 41 52
-3 -19 -9 -47 -12 -63 -11 -40 10 -27 69 43 28 32 53 57 57 54 4 -2 11 1 14 7
4 5 9 8 12 5 3 -2 -2 -15 -11 -28z m-745 0 c11 -21 11 -22 -4 -9 -10 7 -17 17
-17 22 0 15 9 10 21 -13z m415 -5 c-10 -10 -19 5 -10 18 6 11 8 11 12 0 2 -7
1 -15 -2 -18z m74 17 c0 -5 -5 -10 -11 -10 -5 0 -7 5 -4 10 3 6 8 10 11 10 2
0 4 -4 4 -10z m80 6 c0 -2 -8 -10 -17 -17 -16 -13 -17 -12 -4 4 13 16 21 21
21 13z m-45 -36 c-3 -5 -12 -10 -20 -10 -7 0 -16 -7 -19 -16 -4 -9 -9 -14 -13
-10 -9 8 27 46 44 46 8 0 11 -4 8 -10z m6 -53 c-16 -16 -26 0 -10 19 9 11 15
12 17 4 2 -6 -1 -17 -7 -23z m819 -8 c0 -6 -4 -7 -10 -4 -5 3 -10 11 -10 16 0
6 5 7 10 4 6 -3 10 -11 10 -16z m-1303 -11 c-3 -8 -6 -5 -6 6 -1 11 2 17 5 13
3 -3 4 -12 1 -19z m1041 -57 c12 -6 22 -16 22 -20 0 -5 -16 -1 -35 9 -26 13
-44 16 -64 10 -16 -4 -49 -7 -72 -6 -26 1 -51 -4 -61 -12 -18 -15 -48 -10 -48
9 0 7 9 9 25 5 14 -4 25 -2 25 4 0 5 -7 10 -15 10 -8 0 -15 7 -15 15 0 11 11
15 40 15 29 0 40 4 40 15 0 17 9 19 29 6 8 -5 10 -14 6 -21 -4 -7 -2 -16 6
-21 24 -15 31 -10 25 16 -11 42 2 46 37 11 17 -18 42 -38 55 -45z m192 59 c0
-5 -4 -10 -10 -10 -5 0 -10 5 -10 10 0 6 5 10 10 10 6 0 10 -4 10 -10z m150
-21 c0 -26 -23 -34 -51 -18 -23 12 -23 12 -4 19 11 4 23 6 28 3 4 -2 7 3 7 12
0 9 5 13 10 10 6 -3 10 -15 10 -26z m-976 6 c-4 -8 -8 -15 -10 -15 -2 0 -4 7
-4 15 0 8 4 15 10 15 5 0 7 -7 4 -15z m330 -6 c-3 -5 -10 -7 -15 -3 -5 3 -7
10 -3 15 3 5 10 7 15 3 5 -3 7 -10 3 -15z m-594 1 c0 -5 -5 -10 -11 -10 -5 0
-7 5 -4 10 3 6 8 10 11 10 2 0 4 -4 4 -10z m197 -17 c2 -6 -5 -13 -17 -16 -22
-6 -23 -5 -14 18 7 17 25 16 31 -2z m923 1 c0 -8 -4 -12 -10 -9 -5 3 -10 10
-10 16 0 5 5 9 10 9 6 0 10 -7 10 -16z m-510 -31 c0 -22 -28 -26 -56 -8 -24
16 -25 17 -8 30 21 15 64 1 64 -22z m-911 6 c-16 -10 -23 -4 -14 10 3 6 11 8
17 5 6 -4 5 -9 -3 -15z m381 -23 c0 -13 -9 -31 -20 -41 -11 -10 -20 -13 -20
-7 0 6 5 14 10 17 6 4 10 14 9 23 -3 31 1 43 11 37 6 -3 10 -16 10 -29z m1010
24 c0 -5 -7 -10 -16 -10 -8 0 -12 5 -9 10 3 6 10 10 16 10 5 0 9 -4 9 -10z
m196 -22 c10 -15 25 -28 32 -28 8 0 12 -9 11 -22 -2 -13 1 -29 5 -37 7 -11 3
-13 -20 -7 -40 10 -56 25 -49 47 4 12 -3 26 -20 40 -15 14 -21 25 -15 29 21
13 37 6 56 -22z m-1683 2 c-5 -20 -43 -29 -43 -10 0 6 7 10 15 10 8 0 15 5 15
10 0 6 4 10 9 10 5 0 7 -9 4 -20z m622 1 c-3 -6 -11 -11 -17 -11 -6 0 -6 6 2
15 14 17 26 13 15 -4z m-562 -3 c4 -10 7 -10 18 0 21 19 49 15 49 -8 0 -28
-46 -39 -64 -15 -9 13 -15 15 -20 7 -4 -7 -14 -12 -23 -12 -14 0 -14 3 2 20
21 23 31 25 38 8z m107 -2 c0 -3 -4 -8 -10 -11 -5 -3 -10 -1 -10 4 0 6 5 11
10 11 6 0 10 -2 10 -4z m1360 -20 c0 -7 -13 -19 -29 -26 -37 -15 -96 -10 -96
9 0 11 14 15 58 15 31 0 57 3 57 8 0 4 2 8 5 8 3 0 5 -6 5 -14z m-1290 -17 c0
-5 -4 -9 -10 -9 -5 0 -10 7 -10 16 0 8 5 12 10 9 6 -3 10 -10 10 -16z m823 -3
c4 -10 1 -13 -9 -9 -7 3 -14 9 -14 14 0 14 17 10 23 -5z m-458 -25 c-9 -16
-25 -3 -18 15 4 10 9 12 15 6 6 -6 7 -15 3 -21z m405 9 c0 -5 -7 -7 -15 -4 -8
4 -12 10 -9 15 6 11 24 2 24 -11z m-500 -10 c0 -5 -2 -10 -4 -10 -3 0 -8 5
-11 10 -3 6 -1 10 4 10 6 0 11 -4 11 -10z m1915 0 c3 -5 -1 -10 -10 -10 -9 0
-13 5 -10 10 3 6 8 10 10 10 2 0 7 -4 10 -10z m-2589 -27 c-10 -10 -19 5 -10
18 6 11 8 11 12 0 2 -7 1 -15 -2 -18z m64 -12 c0 -22 -5 -43 -12 -47 -8 -5 -9
-2 -5 10 4 10 2 26 -3 37 -11 20 -6 39 11 39 5 0 9 -18 9 -39z m40 14 c0 -14
-4 -25 -9 -25 -10 0 -21 36 -13 44 12 13 22 5 22 -19z m854 12 c-3 -8 -11 -14
-19 -14 -11 0 -12 4 -4 14 6 7 15 13 20 13 5 0 6 -6 3 -13z m1676 -37 c8 -5
11 -12 8 -16 -10 -9 -38 3 -38 16 0 12 10 13 30 0z m-2460 -4 c0 -3 -4 -8 -10
-11 -5 -3 -10 -1 -10 4 0 6 5 11 10 11 6 0 10 -2 10 -4z m40 -6 c0 -5 -4 -10
-10 -10 -5 0 -10 5 -10 10 0 6 5 10 10 10 6 0 10 -4 10 -10z m-56 -40 c-6 -6
-26 -6 -54 -1 l-45 9 55 1 c35 1 51 -2 44 -9z m2466 0 c0 -5 -4 -10 -10 -10
-5 0 -10 5 -10 10 0 6 5 10 10 10 6 0 10 -4 10 -10z m-1835 -30 c8 -13 -5 -13
-25 0 -13 8 -13 10 2 10 9 0 20 -4 23 -10z m-1255 -42 c0 -12 -52 -10 -89 3
-51 18 -36 26 29 15 33 -5 60 -13 60 -18z m43 5 c-7 -2 -19 -2 -25 0 -7 3 -2
5 12 5 14 0 19 -2 13 -5z m502 -51 c-3 -3 -11 0 -18 7 -9 10 -8 11 6 5 10 -3
15 -9 12 -12z m530 8 c3 -5 1 -10 -4 -10 -6 0 -11 5 -11 10 0 6 2 10 4 10 3 0
8 -4 11 -10z m-411 -15 c-7 -18 -76 -40 -99 -31 -25 9 -8 26 28 27 18 0 41 4
52 9 11 5 21 9 22 9 1 1 0 -6 -3 -14z m-177 -1 c-3 -3 -12 -4 -19 -1 -8 3 -5
6 6 6 11 1 17 -2 13 -5z m33 -24 c0 -6 -23 -9 -52 -8 l-53 1 45 7 c25 4 48 8
53 8 4 1 7 -2 7 -8z m-465 -10 c8 7 19 9 26 5 8 -6 7 -10 -2 -17 -9 -5 -4 -6
14 -2 30 7 38 -9 10 -21 -22 -10 -65 -6 -77 6 -6 5 -19 9 -29 9 -16 0 -17 3
-7 15 9 11 17 12 32 4 14 -7 23 -7 33 1z m705 -30 c12 -8 11 -10 -7 -10 -13 0
-23 5 -23 10 0 13 11 13 30 0z m327 -6 c-3 -3 -12 -4 -19 -1 -8 3 -5 6 6 6 11
1 17 -2 13 -5z m-1084 -25 c-4 -12 -11 -18 -20 -15 -9 4 -13 1 -10 -6 2 -7 11
-12 18 -10 9 2 11 0 4 -6 -13 -12 -60 -23 -67 -16 -8 7 53 74 68 74 7 0 10 -8
7 -21z m940 14 c-7 -2 -21 -2 -30 0 -10 3 -4 5 12 5 17 0 24 -2 18 -5z m-1035
-21 c6 -18 -15 -14 -22 4 -4 10 -1 14 6 12 6 -2 14 -10 16 -16z m132 3 c0 -8
-4 -15 -10 -15 -5 0 -10 7 -10 15 0 8 5 15 10 15 6 0 10 -7 10 -15z m255 5 c3
-5 1 -10 -4 -10 -6 0 -11 5 -11 10 0 6 2 10 4 10 3 0 8 -4 11 -10z m422 -22
c-16 -10 -21 -2 -13 19 6 15 9 15 16 3 6 -9 5 -17 -3 -22z m-579 -5 c2 -9 -9
-13 -37 -13 -46 0 -52 6 -18 20 28 11 49 9 55 -7z m87 7 c3 -5 -1 -10 -9 -10
-9 0 -16 5 -16 10 0 6 4 10 9 10 6 0 13 -4 16 -10z m420 -6 c19 18 31 20 40 6
3 -5 -6 -12 -20 -16 -24 -6 -35 -24 -14 -24 5 0 7 -5 3 -12 -5 -8 -13 -4 -26
11 -11 14 -24 21 -34 17 -23 -9 -37 3 -24 20 10 11 16 11 36 -2 21 -15 25 -14
39 0z m-271 0 c25 -9 19 -20 -11 -19 -14 0 -28 6 -31 13 -4 13 16 16 42 6z
m431 -4 c4 -7 -3 -8 -22 -4 -38 9 -42 14 -10 14 14 0 29 -5 32 -10z m-325 -20
c0 -5 -7 -10 -15 -10 -8 0 -15 5 -15 10 0 6 7 10 15 10 8 0 15 -4 15 -10z m4
-30 c-19 -19 -64 -22 -64 -5 0 11 11 15 37 15 26 0 34 -3 27 -10z m236 -5 c7
-8 19 -14 26 -13 7 2 13 -1 14 -7 0 -5 -11 -11 -25 -13 -17 -2 -25 1 -25 11 0
10 -7 13 -20 10 -19 -5 -27 7 -13 20 11 12 30 8 43 -8z m-456 -20 c-8 -19 -35
-28 -48 -15 -7 7 -5 10 7 10 10 0 20 7 23 15 4 8 10 13 15 10 4 -3 6 -12 3
-20z m264 -2 c-6 -7 -14 -10 -19 -7 -15 9 -10 20 10 20 15 0 17 -3 9 -13z
m-1328 -18 c-34 -20 -60 -20 -34 0 10 8 28 14 39 14 18 0 17 -1 -5 -14z m100
6 c0 -6 -4 -13 -10 -16 -5 -3 -10 1 -10 9 0 9 5 16 10 16 6 0 10 -4 10 -9z
m182 -22 c-22 -9 -37 -43 -26 -60 4 -7 1 -10 -7 -7 -8 3 -13 11 -11 17 1 6 -5
11 -15 11 -14 0 -14 2 2 20 10 11 24 20 32 20 7 0 13 7 13 16 0 14 2 14 16 3
14 -12 14 -14 -4 -20z m-132 17 c0 -3 -4 -8 -10 -11 -5 -3 -10 -1 -10 4 0 6 5
11 10 11 6 0 10 -2 10 -4z m1105 -6 c3 -5 -1 -10 -9 -10 -9 0 -16 5 -16 10 0
6 4 10 9 10 6 0 13 -4 16 -10z m2842 -16 c-9 -9 -28 6 -21 18 4 6 10 6 17 -1
6 -6 8 -13 4 -17z m-3192 -14 c-7 -12 -82 -12 -110 0 -14 6 1 9 48 9 43 1 66
-3 62 -9z m-605 -20 c0 -5 -7 -10 -15 -10 -8 0 -15 5 -15 10 0 6 7 10 15 10 8
0 15 -4 15 -10z m3870 -14 c9 -12 8 -15 -9 -13 -21 1 -26 8 -14 20 9 9 9 9 23
-7z m21 -83 c5 -14 8 -28 5 -30 -4 -5 -36 50 -36 62 0 14 22 -9 31 -32z
m-2511 9 c0 -4 -9 -13 -20 -20 -17 -10 -20 -10 -20 2 0 8 8 17 18 19 9 3 18 5
20 6 1 0 2 -2 2 -7z m-1670 -75 c0 -18 -37 -37 -81 -40 -30 -3 -35 0 -32 14 3
10 11 15 19 12 8 -3 20 -1 27 5 10 9 34 17 60 21 4 0 7 -5 7 -12z m50 -7 c0
-13 -11 -13 -30 0 -12 8 -11 10 8 10 12 0 22 -4 22 -10z m4258 -65 c-3 -3 -9
2 -12 12 -6 14 -5 15 5 6 7 -7 10 -15 7 -18z m-2841 -1 c-3 -3 -12 -4 -19 -1
-8 3 -5 6 6 6 11 1 17 -2 13 -5z m2018 -4 c3 -5 -1 -10 -9 -10 -9 0 -16 5 -16
10 0 6 4 10 9 10 6 0 13 -4 16 -10z m-2065 -10 c0 -5 -5 -10 -11 -10 -5 0 -7
5 -4 10 3 6 8 10 11 10 2 0 4 -4 4 -10z m1780 0 c0 -5 -2 -10 -4 -10 -3 0 -8
5 -11 10 -3 6 -1 10 4 10 6 0 11 -4 11 -10z m-1066 -6 c17 -6 22 -24 8 -24 -5
0 -17 7 -28 15 -19 15 -8 20 20 9z m-3294 -44 c0 -5 -2 -10 -4 -10 -3 0 -8 5
-11 10 -3 6 -1 10 4 10 6 0 11 -4 11 -10z m4475 -10 c3 -5 2 -10 -4 -10 -5 0
-13 5 -16 10 -3 6 -2 10 4 10 5 0 13 -4 16 -10z m-1945 -18 c0 -11 -22 -32
-32 -32 -5 0 -4 9 2 20 11 20 30 28 30 12z m-2520 -10 c0 -10 -45 -32 -63 -32
-17 1 32 40 49 40 8 0 14 -4 14 -8z m4480 -2 c0 -5 -4 -10 -10 -10 -5 0 -10 5
-10 10 0 6 5 10 10 10 6 0 10 -4 10 -10z m-1080 -10 c0 -5 -4 -10 -10 -10 -5
0 -10 5 -10 10 0 6 5 10 10 10 6 0 10 -4 10 -10z m1150 -60 c0 -5 -7 -7 -15
-4 -8 4 -15 8 -15 10 0 2 7 4 15 4 8 0 15 -4 15 -10z m-1060 -15 c11 -13 10
-14 -4 -9 -9 3 -16 10 -16 15 0 13 6 11 20 -6z m80 -35 c0 -5 -5 -10 -11 -10
-5 0 -7 5 -4 10 3 6 8 10 11 10 2 0 4 -4 4 -10z m-3520 -10 c0 -5 -2 -10 -4
-10 -3 0 -8 5 -11 10 -3 6 -1 10 4 10 6 0 11 -4 11 -10z m2250 -14 c0 -2 -7
-7 -16 -10 -8 -3 -12 -2 -9 4 6 10 25 14 25 6z m2413 -56 c4 -17 3 -19 -9 -9
-8 6 -14 18 -14 26 0 20 16 8 23 -17z m-1077 -1 c3 -6 2 -15 -4 -21 -6 -6 -11
-2 -15 11 -5 22 7 29 19 10z m54 -100 c0 -6 -4 -7 -10 -4 -5 3 -10 11 -10 16
0 6 5 7 10 4 6 -3 10 -11 10 -16z m1184 -26 c4 -9 2 -11 -7 -6 -16 10 -41 10
-48 -1 -4 -5 -12 -5 -18 -1 -18 11 17 33 45 27 12 -2 25 -11 28 -19z m-1153
-10 c13 -16 12 -17 -3 -4 -10 7 -18 15 -18 17 0 8 8 3 21 -13z m1203 -12 c4
-5 3 -16 0 -25 -6 -15 -8 -15 -20 1 -7 10 -14 21 -14 26 0 10 28 9 34 -2z
m-2494 -21 c0 -5 -2 -10 -4 -10 -3 0 -8 5 -11 10 -3 6 -1 10 4 10 6 0 11 -4
11 -10z m1339 -4 c10 -12 8 -13 -8 -9 -12 3 -21 9 -21 14 0 14 16 11 29 -5z
m1023 -45 c-1 -7 3 -19 9 -27 19 -23 4 -27 -30 -9 -32 16 -43 29 -16 19 18 -7
20 7 3 25 -11 10 -8 12 12 9 14 -2 24 -9 22 -17z m-2342 -31 c0 -5 -4 -10 -9
-10 -6 0 -13 5 -16 10 -3 6 1 10 9 10 9 0 16 -4 16 -10z m1400 -6 c0 -9 14
-34 31 -55 23 -29 27 -39 15 -39 -9 0 -16 -4 -16 -9 0 -15 22 -25 29 -13 9 15
81 -54 81 -79 0 -10 -7 -19 -15 -19 -12 0 -13 -5 -4 -26 7 -20 6 -32 -6 -50
-8 -13 -19 -24 -23 -25 -17 -2 -45 -8 -58 -13 -21 -8 -17 -49 7 -70 17 -14 20
-24 14 -49 -4 -18 -10 -50 -14 -72 -9 -51 -26 -82 -52 -95 -23 -13 -34 -39
-55 -125 -13 -51 -57 -155 -110 -255 -20 -39 -41 -48 -61 -27 -17 18 -17 18
12 12 25 -5 27 -4 13 5 -23 14 -23 39 -1 70 28 39 53 92 48 100 -7 11 25 71
41 77 8 3 14 13 14 23 0 9 9 29 20 43 11 14 20 34 20 45 0 11 7 33 15 48 8 16
15 41 15 56 0 32 14 97 41 186 13 43 16 68 9 80 -5 9 -16 49 -25 87 -27 114
-29 129 -16 121 6 -4 11 -2 11 3 0 6 -7 11 -15 11 -8 0 -15 8 -15 18 0 10 -6
24 -12 31 -11 11 -10 13 2 9 8 -3 16 -15 18 -27 5 -31 28 -20 24 13 -1 14 2
26 8 26 5 0 10 -7 10 -16z m931 -31 c13 -16 12 -17 -3 -4 -10 7 -18 15 -18 17
0 8 8 3 21 -13z m-2268 -134 c10 -25 12 -39 5 -37 -13 5 -41 78 -29 78 4 0 15
-18 24 -41z m2651 -85 c3 -8 2 -14 -2 -14 -10 0 -32 22 -32 32 0 12 28 -2 34
-18z m46 -55 c11 -19 10 -20 -9 -10 -27 15 -36 31 -17 31 8 0 20 -9 26 -21z
m-1276 -65 c3 -8 2 -12 -4 -9 -6 3 -10 10 -10 16 0 14 7 11 14 -7z m1178 -41
c9 -10 18 -30 20 -46 5 -24 3 -27 -14 -21 -16 5 -19 2 -14 -14 4 -12 1 -22 -8
-25 -22 -9 -49 65 -36 98 11 29 31 32 52 8z m-512 -13 c0 -5 -5 -10 -11 -10
-5 0 -7 5 -4 10 3 6 8 10 11 10 2 0 4 -4 4 -10z m763 -4 c24 -18 22 -23 -13
-23 -16 0 -30 1 -30 3 0 10 13 34 19 34 3 0 14 -7 24 -14z m-3173 -33 c0 -30
-16 -22 -22 11 -4 17 -1 23 9 19 7 -3 13 -16 13 -30z m3190 -44 c0 -5 -4 -9
-10 -9 -5 0 -10 7 -10 16 0 8 5 12 10 9 6 -3 10 -10 10 -16z m-690 -52 c0 -2
-10 -12 -21 -23 -22 -19 -22 -19 -10 4 10 18 31 31 31 19z m408 -32 c-3 -3 -9
2 -12 12 -6 14 -5 15 5 6 7 -7 10 -15 7 -18z m76 9 c9 -8 16 -23 16 -31 0 -13
-5 -12 -25 7 -14 13 -25 27 -25 32 0 13 17 9 34 -8z m-542 -59 c-5 -31 -22
-44 -22 -18 0 15 17 43 26 43 1 0 -1 -11 -4 -25z m507 -21 c14 -32 14 -33 -7
-31 -10 0 -18 8 -18 16 -1 9 -5 24 -9 34 -12 28 20 10 34 -19z m206 6 c3 -5 1
-10 -4 -10 -6 0 -11 5 -11 10 0 6 2 10 4 10 3 0 8 -4 11 -10z m-678 -105 c-17
-47 -44 -63 -33 -19 7 28 35 68 43 61 2 -2 -3 -21 -10 -42z m513 -31 c0 -3
-11 8 -25 23 l-25 28 11 -30 c6 -16 12 -43 13 -59 l2 -29 -19 24 -20 24 8 -24
c4 -14 16 -33 26 -44 15 -16 17 -29 12 -61 -4 -23 -7 -49 -7 -58 0 -10 -4 -18
-8 -18 -4 0 -8 5 -8 12 0 6 -8 20 -17 30 -20 22 -28 131 -11 161 6 12 6 22 -1
31 -14 16 -10 55 5 49 7 -2 15 1 19 7 4 7 14 -3 26 -24 10 -20 19 -38 19 -42z
m-649 33 c-13 -12 -20 -15 -16 -7 14 26 28 41 33 35 3 -3 -5 -16 -17 -28z
m741 -95 c-3 -10 -12 -5 -28 15 -32 39 -30 49 5 21 15 -13 26 -29 23 -36z m78
-15 c0 -8 -9 -24 -20 -37 -15 -17 -23 -21 -31 -13 -8 8 -6 15 10 25 11 7 21
18 21 25 0 7 5 13 10 13 6 0 10 -6 10 -13z m-758 -29 c-7 -7 -12 -8 -12 -2 0
14 12 26 19 19 2 -3 -1 -11 -7 -17z m618 -73 c3 -90 1 -115 -11 -115 -6 0 -9
21 -8 53 1 29 -2 61 -8 71 -7 13 -7 26 1 42 16 33 24 18 26 -51z m-645 46 c-3
-5 -24 -24 -48 -43 -23 -18 -35 -24 -27 -13 26 34 45 52 60 58 22 8 22 8 15
-2z m735 -27 c0 -8 -4 -14 -10 -14 -5 0 -10 9 -10 21 0 11 5 17 10 14 6 -3 10
-13 10 -21z m40 -4 c0 -5 -7 -10 -15 -10 -8 0 -15 5 -15 10 0 6 7 10 15 10 8
0 15 -4 15 -10z m-880 -54 c0 -2 -7 -7 -16 -10 -8 -3 -12 -2 -9 4 6 10 25 14
25 6z m667 -72 c3 -27 5 -62 5 -77 -1 -15 3 -39 8 -53 10 -26 3 -77 -9 -69 -4
2 -6 18 -3 35 2 16 0 36 -6 43 -15 18 -27 195 -12 181 6 -6 14 -33 17 -60z
m-1524 44 c6 -19 -11 -48 -28 -48 -19 0 -19 16 0 24 8 3 12 12 9 21 -3 8 -2
15 4 15 6 0 12 -6 15 -12z m1707 -65 c0 -15 -4 -22 -11 -18 -6 4 -8 13 -5 20
2 7 -4 21 -15 31 -10 9 -19 24 -19 33 0 11 8 7 25 -13 14 -16 25 -40 25 -53z
m-126 7 c15 -33 32 -58 37 -54 6 4 6 11 -2 20 -14 18 -5 44 17 44 12 0 15 -6
10 -24 -4 -15 -1 -26 6 -28 8 -3 4 -9 -10 -17 -22 -12 -31 -41 -12 -41 6 0 10
-20 10 -45 0 -51 -15 -60 -25 -15 -4 16 -11 32 -16 35 -5 4 -9 17 -9 30 0 13
-12 38 -27 56 -20 24 -23 31 -10 26 21 -8 21 1 2 27 -17 22 -20 46 -6 46 4 0
20 -27 35 -60z m-1554 16 c0 -3 -4 -8 -10 -11 -5 -3 -10 -1 -10 4 0 6 5 11 10
11 6 0 10 -2 10 -4z m-30 -52 c0 -10 -22 -39 -50 -65 -27 -26 -50 -44 -50 -38
0 15 -28 10 -38 -8 -7 -11 -6 -23 1 -34 9 -14 4 -26 -27 -63 -20 -25 -41 -46
-46 -46 -17 0 7 55 29 66 16 8 19 13 9 17 -8 4 -9 8 -3 14 6 4 12 17 13 28 2
10 14 31 26 46 18 21 26 25 41 16 15 -8 17 -7 12 7 -4 10 -1 19 8 22 8 4 15
12 15 19 0 6 10 17 23 23 31 15 37 14 37 -4z m-80 -19 c0 -8 -7 -15 -15 -15
-9 0 -12 6 -9 15 4 8 10 15 15 15 5 0 9 -7 9 -15z m745 -115 c-27 -28 -54 -50
-59 -50 -6 0 14 25 44 55 29 30 56 52 59 50 3 -3 -17 -28 -44 -55z m-105 25
c-7 -9 -15 -13 -17 -11 -7 7 7 26 19 26 6 0 6 -6 -2 -15z m180 -9 c0 -3 -4 -8
-10 -11 -5 -3 -10 -1 -10 4 0 6 5 11 10 11 6 0 10 -2 10 -4z m860 -62 c0 -8
-4 -12 -10 -9 -5 3 -10 13 -10 21 0 8 5 12 10 9 6 -3 10 -13 10 -21z m-46 -56
c-3 -9 2 -38 10 -63 20 -58 20 -71 1 -55 -8 7 -15 17 -15 22 0 5 -9 29 -20 53
-11 24 -18 51 -15 59 17 53 16 52 30 26 8 -14 12 -33 9 -42z m-1099 22 c-3 -5
-11 -10 -16 -10 -6 0 -7 5 -4 10 3 6 11 10 16 10 6 0 7 -4 4 -10z m-35 -30 c0
-5 -5 -10 -11 -10 -5 0 -7 5 -4 10 3 6 8 10 11 10 2 0 4 -4 4 -10z m1061 -14
c-8 -10 -9 -16 -1 -21 5 -3 10 -13 10 -22 0 -11 -7 -7 -22 12 -21 27 -21 28
-3 41 22 17 33 10 16 -10z m171 -15 c-2 -16 -11 -32 -19 -35 -11 -5 -13 -2 -8
11 4 10 10 28 12 40 8 33 20 19 15 -16z m-2012 -1 c0 -5 -5 -10 -11 -10 -5 0
-7 5 -4 10 3 6 8 10 11 10 2 0 4 -4 4 -10z m1827 -56 c-4 -17 -6 -17 -12 4 -4
12 -12 22 -17 22 -5 0 -6 5 -2 11 10 17 37 -15 31 -37z m-1727 21 c0 -8 -4
-15 -10 -15 -5 0 -7 7 -4 15 4 8 8 15 10 15 2 0 4 -7 4 -15z m735 -4 c3 -6 -4
-15 -15 -21 -19 -10 -20 -10 -8 9 15 24 15 24 23 12z m385 -25 c0 -16 -60 -80
-68 -72 -4 4 56 82 66 85 1 1 2 -5 2 -13z m-589 -21 c21 14 7 -19 -21 -46 -31
-31 -64 -32 -36 0 8 9 20 30 27 46 9 23 13 26 16 12 3 -9 9 -15 14 -12z m1144
5 c-3 -5 -11 -10 -16 -10 -6 0 -7 5 -4 10 3 6 11 10 16 10 6 0 7 -4 4 -10z
m44 -37 c1 -1 0 -7 -4 -13 -5 -8 -11 -5 -21 7 -19 25 -17 38 4 22 9 -7 19 -14
21 -16z m-1289 -32 c0 -9 -24 -21 -42 -21 -6 0 -6 6 2 15 14 16 40 20 40 6z
m200 -30 c-25 -36 -39 -42 -18 -8 8 12 18 28 22 35 5 7 10 11 13 8 3 -3 -5
-19 -17 -35z m337 -19 c-20 -20 -27 -23 -27 -10 0 15 41 50 49 42 3 -3 -7 -17
-22 -32z m-1097 -2 c0 -5 -4 -10 -10 -10 -5 0 -10 5 -10 10 0 6 5 10 10 10 6
0 10 -4 10 -10z m720 -29 c0 -3 -4 -12 -9 -19 -6 -11 -9 -9 -13 5 -3 12 0 20
8 20 8 0 14 -3 14 -6z m290 -28 c-8 -3 -34 -24 -57 -46 -24 -23 -43 -36 -43
-30 0 16 81 83 99 82 14 0 14 -1 1 -6z m-1141 -50 c-28 -35 -49 -53 -61 -53
-7 1 5 16 27 35 44 38 54 44 34 18z m616 -173 c-4 -12 -9 -19 -12 -17 -3 3 -2
15 2 27 4 12 9 19 12 17 3 -3 2 -15 -2 -27z m405 20 c0 -5 -5 -10 -11 -10 -5
0 -7 5 -4 10 3 6 8 10 11 10 2 0 4 -4 4 -10z m-530 -65 c0 -8 -7 -15 -15 -15
-16 0 -20 12 -8 23 11 12 23 8 23 -8z m-76 -289 c-10 -8 -21 -12 -24 -9 -3 2
4 11 14 19 11 7 22 12 25 9 2 -3 -4 -12 -15 -19z m1295 -131 c0 -16 -1 -17 -8
-5 -5 8 -11 29 -15 45 l-6 30 15 -25 c8 -14 14 -34 14 -45z"/>
<path d="M6280 3480 c0 -5 5 -10 11 -10 5 0 7 5 4 10 -3 6 -8 10 -11 10 -2 0
-4 -4 -4 -10z"/>
<path d="M6245 3340 c-3 -5 -2 -10 4 -10 5 0 13 5 16 10 3 6 2 10 -4 10 -5 0
-13 -4 -16 -10z"/>
<path d="M6250 6747 c0 -16 37 -57 51 -57 6 0 1 13 -11 30 -25 36 -40 46 -40
27z"/>
<path d="M2620 6719 c0 -5 5 -7 10 -4 6 3 10 8 10 11 0 2 -4 4 -10 4 -5 0 -10
-5 -10 -11z"/>
<path d="M2670 6720 c0 -5 5 -10 11 -10 5 0 7 5 4 10 -3 6 -8 10 -11 10 -2 0
-4 -4 -4 -10z"/>
<path d="M2600 6690 c0 -5 5 -10 10 -10 6 0 10 5 10 10 0 6 -4 10 -10 10 -5 0
-10 -4 -10 -10z"/>
<path d="M2647 6664 c-4 -4 -4 -10 -1 -15 6 -10 34 0 34 12 0 10 -24 12 -33 3z"/>
<path d="M6300 6656 c0 -8 5 -18 10 -21 6 -3 10 1 10 9 0 8 -4 18 -10 21 -5 3
-10 -1 -10 -9z"/>
<path d="M2700 6630 c0 -5 5 -10 11 -10 5 0 7 5 4 10 -3 6 -8 10 -11 10 -2 0
-4 -4 -4 -10z"/>
<path d="M6310 6566 c0 -8 5 -18 10 -21 6 -3 10 1 10 9 0 8 -4 18 -10 21 -5 3
-10 -1 -10 -9z"/>
<path d="M6344 6517 c3 -10 6 -26 6 -35 1 -15 2 -15 11 2 9 14 7 22 -6 35 -17
15 -17 15 -11 -2z"/>
<path d="M830 6449 c-11 -7 -4 -9 28 -5 23 3 42 2 42 -3 0 -4 -63 -11 -139
-15 -77 -4 -163 -14 -193 -22 -29 -8 -113 -18 -186 -21 -114 -5 -134 -9 -143
-24 -12 -23 -73 -35 -105 -20 -25 11 -41 6 -90 -30 -21 -14 -13 -16 129 -33
296 -35 501 -70 570 -98 23 -9 31 -8 38 3 5 8 9 9 9 2 0 -17 60 -35 76 -22 9
8 18 5 33 -10 12 -12 21 -18 21 -13 0 4 4 1 8 -5 5 -7 36 -15 70 -18 41 -3 73
-11 91 -25 44 -31 79 -25 129 20 23 21 51 41 61 45 10 3 24 16 31 30 14 27 90
91 90 77 0 -19 -82 -131 -115 -158 -27 -21 -32 -31 -25 -45 7 -12 6 -19 -3
-22 -6 -2 0 -8 16 -12 15 -4 27 -13 27 -21 0 -7 12 -17 27 -20 15 -4 37 -12
50 -19 27 -14 47 -13 181 13 62 12 105 16 108 10 3 -5 -28 -45 -70 -88 l-77
-79 21 -41 c12 -23 19 -48 16 -56 -3 -8 3 -29 14 -46 10 -18 22 -50 25 -71 6
-30 11 -37 24 -31 9 4 43 14 77 24 33 9 66 20 73 24 17 11 146 28 196 27 37
-1 45 4 120 80 103 104 122 117 218 151 69 24 93 27 186 26 64 -1 115 4 128
10 32 17 35 15 19 -15 -14 -28 -133 -139 -193 -181 -17 -12 -50 -29 -73 -37
-23 -8 -60 -27 -83 -43 -23 -15 -58 -34 -77 -41 -19 -8 -51 -26 -70 -40 -37
-27 -180 -170 -180 -180 0 -13 -53 -107 -72 -127 -10 -12 -27 -37 -37 -55 -10
-19 -35 -45 -56 -59 -27 -18 -33 -26 -21 -28 20 -4 12 -42 -10 -55 -8 -4 -14
-15 -14 -22 0 -8 -5 -15 -11 -15 -6 0 -25 -15 -43 -33 -34 -36 -82 -61 -91
-48 -3 5 2 12 11 15 9 4 15 9 12 12 -3 3 -25 -5 -49 -17 -56 -29 -56 -29 -40
-38 9 -6 -3 -16 -41 -33 -30 -14 -68 -37 -84 -52 -16 -14 -60 -49 -99 -78 -67
-49 -276 -252 -398 -385 -72 -80 -159 -220 -248 -401 -68 -139 -143 -321 -136
-329 3 -2 19 34 37 79 95 242 269 522 417 673 103 105 191 185 203 185 5 0 49
27 99 60 179 120 345 171 427 132 28 -13 34 -21 29 -37 -3 -11 -9 -36 -12 -55
-3 -19 -12 -44 -19 -56 -8 -11 -27 -60 -44 -110 -17 -49 -36 -99 -41 -111 -6
-11 -9 -26 -5 -31 3 -6 3 -12 -2 -14 -11 -4 -53 -110 -47 -116 9 -9 29 25 150
265 66 129 129 242 141 252 12 9 24 26 28 38 4 12 27 44 52 70 25 26 64 76 86
110 67 103 146 161 303 222 61 23 137 56 170 73 33 17 80 36 105 44 25 8 77
36 115 64 39 27 88 59 110 71 21 12 47 32 58 45 10 13 25 24 34 24 8 0 47 27
86 61 108 93 145 115 168 101 10 -7 26 -12 34 -12 9 0 37 -6 63 -14 26 -8 98
-24 161 -35 63 -12 125 -28 138 -36 30 -20 30 -5 -1 24 -21 19 -23 28 -15 48
5 14 7 35 3 47 -8 31 -48 110 -56 114 -5 2 -8 9 -8 15 0 7 -23 31 -50 55 -46
39 -59 71 -24 58 20 -8 17 7 -7 38 -25 32 -36 32 -65 5 l-23 -22 -54 27 c-48
23 -118 41 -197 51 -37 5 -112 -14 -133 -32 -20 -18 -157 -29 -157 -12 0 5 -7
9 -15 9 -9 0 -15 -9 -15 -21 0 -18 -2 -19 -15 -6 -8 9 -29 18 -47 22 -92 17
-121 29 -137 56 -18 29 -74 72 -109 83 -28 9 -72 52 -72 70 0 14 -16 21 -103
42 -21 5 -25 9 -15 15 10 6 8 9 -7 9 -53 -1 -157 -20 -185 -34 -30 -14 -34
-14 -88 13 -122 62 -143 71 -214 94 -63 21 -134 38 -213 52 -72 12 -260 35
-283 34 -15 0 -54 4 -87 9 -33 5 -91 7 -130 4 -109 -8 -139 -6 -143 6 -5 15
-62 15 -82 1z m-65 -259 c3 -5 2 -10 -4 -10 -5 0 -13 5 -16 10 -3 6 -2 10 4
10 5 0 13 -4 16 -10z m65 0 c0 -5 -4 -10 -10 -10 -5 0 -10 5 -10 10 0 6 5 10
10 10 6 0 10 -4 10 -10z m960 -261 c-7 -11 -14 -18 -17 -15 -3 3 0 12 7 21 18
21 23 19 10 -6z m1220 -69 c8 -9 32 -26 53 -39 40 -24 48 -41 19 -41 -35 0
-122 81 -122 114 0 9 24 -8 50 -34z m-1301 -85 c-47 -93 -69 -129 -69 -112 0
4 4 15 9 25 5 9 15 31 22 47 19 42 81 146 85 143 1 -2 -20 -48 -47 -103z
m1067 76 c15 -11 20 -22 14 -26 -5 -3 -14 -4 -19 -1 -4 3 -16 -1 -27 -8 -10
-8 -24 -11 -32 -9 -8 4 -2 12 19 25 25 16 29 22 18 29 -8 5 -10 9 -6 9 5 0 20
-9 33 -19z m397 -72 c20 -5 37 -14 37 -20 0 -6 -15 -7 -37 -3 -44 8 -53 12
-53 25 0 11 6 11 53 -2z m-636 -305 c-3 -3 -12 -4 -19 -1 -8 3 -5 6 6 6 11 1
17 -2 13 -5z m-53 -29 c-10 -8 -23 -14 -29 -14 -5 0 -1 6 9 14 11 8 24 15 30
15 5 0 1 -7 -10 -15z m-638 -342 c-10 -10 -19 5 -10 18 6 11 8 11 12 0 2 -7 1
-15 -2 -18z m-26 -22 c0 -12 -20 -25 -27 -18 -7 7 6 27 18 27 5 0 9 -4 9 -9z"/>
<path d="M1840 6450 c0 -5 5 -10 11 -10 5 0 7 5 4 10 -3 6 -8 10 -11 10 -2 0
-4 -4 -4 -10z"/>
<path d="M1890 6450 c0 -5 9 -10 21 -10 11 0 17 5 14 10 -3 6 -13 10 -21 10
-8 0 -14 -4 -14 -10z"/>
<path d="M1960 6440 c0 -5 9 -10 21 -10 11 0 17 5 14 10 -3 6 -13 10 -21 10
-8 0 -14 -4 -14 -10z"/>
<path d="M2050 6430 c0 -5 4 -10 9 -10 6 0 13 5 16 10 3 6 -1 10 -9 10 -9 0
-16 -4 -16 -10z"/>
<path d="M2113 6432 c-16 -5 -20 -11 -14 -21 6 -9 10 -10 16 -2 5 9 10 9 20 1
8 -7 19 -9 25 -5 5 3 10 1 10 -4 0 -6 5 -11 12 -11 6 0 1 11 -12 25 -13 14
-26 25 -29 24 -3 -1 -16 -4 -28 -7z"/>
<path d="M2280 6390 c0 -5 5 -10 10 -10 6 0 10 5 10 10 0 6 -4 10 -10 10 -5 0
-10 -4 -10 -10z"/>
<path d="M2215 6380 c3 -5 8 -10 11 -10 2 0 4 5 4 10 0 6 -5 10 -11 10 -5 0
-7 -4 -4 -10z"/>
<path d="M2421 6363 c23 -29 53 -52 68 -53 8 0 -3 16 -25 35 -42 36 -66 46
-43 18z"/>
<path d="M2170 6355 c-14 -16 -3 -20 19 -6 8 5 9 11 3 15 -5 3 -15 -1 -22 -9z"/>
<path d="M2413 6256 c-10 -11 -5 -19 22 -38 19 -12 35 -31 35 -40 0 -10 7 -18
15 -18 8 0 15 -6 15 -14 0 -8 17 -24 38 -37 20 -12 47 -31 60 -42 26 -24 31
-4 5 25 -15 17 -15 18 1 18 10 0 21 -13 28 -30 10 -30 11 -30 34 -15 30 19 34
19 34 -3 0 -11 15 -24 40 -35 50 -21 50 -21 50 2 0 20 -42 37 -62 25 -6 -4 -9
-1 -6 7 3 8 15 13 28 11 12 -1 30 3 38 10 9 7 13 8 10 3 -7 -11 13 -15 66 -15
29 -1 43 6 34 15 -2 3 -27 8 -54 11 -27 3 -65 16 -84 28 -41 26 -80 23 -88 -6
-4 -19 -7 -17 -21 12 -17 37 -41 51 -41 26 0 -14 -5 -14 -40 4 l-41 21 6 -28
6 -28 -21 25 c-14 15 -18 26 -10 28 15 5 -18 42 -37 42 -7 0 -18 11 -23 25
-11 28 -19 31 -37 11z m294 -132 c-3 -3 -12 -4 -19 -1 -8 3 -5 6 6 6 11 1 17
-2 13 -5z"/>
<path d="M2640 6178 c0 -15 24 -18 55 -9 22 7 25 10 10 11 -11 1 -30 3 -42 4
-13 2 -23 -1 -23 -6z"/>
<path d="M2816 6052 c-3 -6 -1 -14 5 -17 14 -9 20 -2 10 14 -6 8 -11 9 -15 3z"/>
<path d="M5350 5839 c-7 -11 -9 -30 -7 -41 3 -11 0 -21 -9 -25 -16 -6 -19 -33
-4 -33 6 0 10 7 10 16 0 11 6 14 23 9 17 -5 19 -4 7 4 -8 6 -11 11 -6 11 5 0
4 6 -2 13 -9 10 -8 19 3 35 9 12 11 23 6 27 -6 3 -15 -4 -21 -16z"/>
<path d="M5428 5822 c-10 -2 -18 -8 -18 -14 0 -6 9 -8 20 -5 22 6 25 -5 10
-34 -11 -20 3 -28 15 -8 14 21 50 27 82 13 18 -7 35 -9 38 -4 3 4 -1 11 -7 13
-8 3 -6 6 5 6 9 1 17 8 17 17 0 14 -2 15 -17 3 -15 -12 -16 -12 -10 5 6 16 4
17 -15 11 -33 -11 -81 -14 -93 -6 -5 4 -18 6 -27 3z"/>
<path d="M2436 5793 c-6 -14 -5 -15 5 -6 7 7 10 15 7 18 -3 3 -9 -2 -12 -12z"/>
<path d="M5600 5780 c0 -5 7 -7 15 -4 8 4 15 8 15 10 0 2 -7 4 -15 4 -8 0 -15
-4 -15 -10z"/>
<path d="M5739 5781 c8 -5 10 -14 6 -22 -6 -11 -5 -11 5 -2 14 12 6 33 -13 33
-8 0 -7 -3 2 -9z"/>
<path d="M5184 5762 c5 -13 3 -22 -3 -22 -6 0 -11 5 -11 12 0 6 -7 3 -15 -8
-8 -10 -14 -28 -14 -39 0 -18 1 -18 10 -3 5 9 15 15 22 12 7 -2 18 5 25 16 11
18 10 23 -4 37 -16 16 -16 16 -10 -5z"/>
<path d="M6635 5760 c20 -22 31 -20 22 5 -4 8 -14 15 -23 15 -16 0 -16 -2 1
-20z"/>
<path d="M1327 5729 c7 -7 15 -10 18 -7 3 3 -2 9 -12 12 -14 6 -15 5 -6 -5z"/>
<path d="M6678 5729 c16 -15 50 -19 55 -6 3 9 -5 13 -29 13 -19 0 -31 -3 -26
-7z"/>
<path d="M1344 5697 c-23 -24 -37 -44 -154 -222 -43 -66 -83 -119 -89 -118 -6
2 -8 -3 -5 -10 2 -7 -9 -33 -26 -58 -16 -24 -30 -50 -30 -56 0 -7 -10 -13 -22
-14 -13 0 -17 -3 -10 -6 17 -7 15 -23 -3 -23 -10 0 -15 -10 -15 -27 0 -33 -14
-58 -32 -58 -7 0 -13 -11 -14 -25 -2 -49 -4 -51 -23 -45 -14 4 -23 0 -30 -13
-9 -16 -7 -21 10 -25 25 -7 16 -27 -12 -27 -10 0 -19 -6 -19 -14 0 -8 -6 -16
-12 -19 -10 -3 -9 -8 2 -22 8 -10 10 -16 4 -12 -18 11 -41 -24 -60 -91 -15
-55 -15 -65 -3 -74 11 -8 11 -9 -3 -5 -13 5 -18 -3 -24 -36 -5 -23 -9 -46 -9
-52 0 -5 -3 -14 -7 -20 -10 -17 -59 -207 -55 -212 3 -2 8 6 12 19 54 175 221
514 349 708 83 125 167 234 265 340 55 60 79 93 76 106 -2 10 -9 45 -15 77 -6
31 -14 57 -18 57 -4 0 -16 -10 -28 -23z m-494 -832 c0 -8 -4 -15 -10 -15 -5 0
-10 7 -10 15 0 8 5 15 10 15 6 0 10 -7 10 -15z"/>
<path d="M5470 5699 c0 -5 5 -7 10 -4 6 3 10 8 10 11 0 2 -4 4 -10 4 -5 0 -10
-5 -10 -11z"/>
<path d="M6750 5683 c0 -6 4 -14 9 -17 14 -9 10 -56 -5 -56 -7 0 -11 6 -9 13
2 6 -2 20 -9 30 -16 20 -46 13 -46 -12 0 -19 20 -53 20 -33 0 6 5 12 10 12 6
0 10 -6 10 -14 0 -7 9 -16 20 -19 13 -3 18 -10 14 -21 -4 -10 -1 -16 9 -16 10
0 14 -11 13 -37 -1 -34 2 -38 24 -38 16 0 26 6 28 18 2 11 -3 17 -17 17 -33 0
-34 18 -1 35 37 19 35 36 -7 47 -35 9 -39 35 -9 60 20 16 20 17 2 18 -14 0
-16 3 -7 14 9 11 5 13 -19 12 -16 -1 -30 -6 -30 -13z"/>
<path d="M5090 5658 c-10 -21 -32 -41 -62 -57 -31 -15 -48 -30 -48 -42 0 -10
-10 -25 -22 -33 -21 -15 -22 -17 -5 -33 17 -17 18 -17 12 -1 -5 13 0 19 19 24
14 3 26 13 26 21 0 19 47 61 76 69 15 4 20 11 17 24 -3 10 0 21 6 24 12 8 15
36 4 36 -5 0 -15 -15 -23 -32z"/>
<path d="M5155 5679 c-11 -17 1 -21 15 -4 8 9 8 15 2 15 -6 0 -14 -5 -17 -11z"/>
<path d="M1280 5671 c0 -6 5 -13 10 -16 6 -3 10 1 10 9 0 9 -4 16 -10 16 -5 0
-10 -4 -10 -9z"/>
<path d="M5335 5670 c-3 -5 -2 -10 4 -10 5 0 13 5 16 10 3 6 2 10 -4 10 -5 0
-13 -4 -16 -10z"/>
<path d="M2189 5649 c-23 -19 -23 -20 -2 -10 12 6 25 16 28 21 10 16 -1 12
-26 -11z"/>
<path d="M5370 5648 c-22 -10 -23 -12 -6 -15 10 -3 26 2 34 11 19 18 8 20 -28
4z"/>
<path d="M5281 5621 c-27 -37 -27 -51 -1 -20 16 19 21 21 29 10 11 -17 23 1
15 23 -9 23 -20 20 -43 -13z"/>
<path d="M1249 5603 c-13 -16 -12 -17 4 -4 16 13 21 21 13 21 -2 0 -10 -8 -17
-17z"/>
<path d="M6586 5565 c-11 -8 -28 -15 -38 -15 -11 0 -15 -5 -12 -15 4 -10 0
-15 -15 -15 -17 0 -21 -5 -18 -22 4 -34 23 -63 31 -49 10 16 21 14 53 -13 16
-14 56 -32 90 -40 72 -19 73 -19 73 -6 0 5 -15 13 -32 18 -31 8 -28 10 35 17
64 7 83 17 54 28 -8 3 -20 1 -28 -4 -17 -12 -144 -2 -180 14 -40 17 -54 45
-34 67 9 10 23 16 30 14 7 -3 15 4 18 15 6 25 -1 26 -27 6z m-46 -86 c0 -6 -4
-7 -10 -4 -5 3 -10 11 -10 16 0 6 5 7 10 4 6 -3 10 -11 10 -16z"/>
<path d="M5066 5551 c-3 -5 1 -11 9 -15 8 -3 15 -1 15 4 0 13 -18 22 -24 11z"/>
<path d="M6870 5550 c0 -5 16 -16 35 -24 19 -8 53 -35 77 -60 23 -25 50 -46
60 -46 10 0 18 -5 18 -11 0 -5 -4 -8 -8 -5 -22 14 -62 13 -73 -1 -17 -20 6
-35 43 -29 15 3 31 0 37 -8 9 -11 6 -15 -16 -21 -26 -6 -27 -8 -10 -20 15 -11
16 -17 6 -39 -9 -19 -16 -23 -24 -16 -17 14 -45 2 -38 -16 3 -9 11 -13 17 -11
7 3 11 -8 10 -27 -1 -20 -7 -32 -17 -34 -18 -4 -20 -11 -11 -36 7 -18 34 -22
34 -6 0 6 6 10 13 9 28 -3 48 2 42 11 -4 6 -16 8 -27 4 -17 -5 -19 -2 -16 23
4 33 26 38 101 21 73 -16 79 1 18 48 -55 43 -59 50 -33 56 24 7 21 86 -4 105
-10 7 -19 20 -20 28 -3 22 -41 52 -104 82 -59 28 -110 39 -110 23z"/>
<path d="M7035 5540 c3 -5 13 -10 21 -10 8 0 12 5 9 10 -3 6 -13 10 -21 10 -8
0 -12 -4 -9 -10z"/>
<path d="M5025 5530 c-3 -5 1 -10 9 -10 9 0 16 5 16 10 0 6 -4 10 -9 10 -6 0
-13 -4 -16 -10z"/>
<path d="M4865 5520 c-16 -7 -17 -9 -3 -9 9 -1 20 4 23 9 7 11 7 11 -20 0z"/>
<path d="M4659 5479 l-24 -21 25 7 c33 8 100 16 78 9 -28 -9 -21 -31 10 -31
15 0 50 -4 78 -8 47 -7 52 -6 59 14 10 32 -2 42 -51 37 -24 -2 -47 0 -50 5 -3
5 -27 9 -53 9 -35 0 -55 -6 -72 -21z"/>
<path d="M5034 5475 c-9 -14 -14 -28 -11 -31 11 -12 47 8 47 26 0 30 -18 33
-36 5z"/>
<path d="M6942 5448 c-18 -18 -15 -28 8 -28 13 0 20 7 20 20 0 23 -10 26 -28
8z"/>
<path d="M4410 5440 c-13 -9 -13 -10 0 -10 12 0 12 -2 1 -9 -17 -11 -6 -17 42
-26 24 -5 42 -3 52 5 22 18 19 27 -16 39 -39 13 -59 14 -79 1z"/>
<path d="M7183 5439 c1 -7 13 -24 27 -39 14 -15 35 -39 48 -54 12 -15 27 -24
32 -21 6 4 8 10 5 15 -3 5 -1 11 4 15 6 3 15 -3 21 -14 11 -21 100 -87 100
-75 0 10 -105 110 -136 131 -13 8 -28 12 -34 8 -6 -4 -20 5 -31 19 -21 27 -41
35 -36 15z"/>
<path d="M4640 5410 c-6 -11 -9 -20 -8 -20 2 0 11 9 21 20 9 11 13 20 7 20 -5
0 -14 -9 -20 -20z"/>
<path d="M6780 5410 c0 -5 7 -7 15 -4 8 4 15 8 15 10 0 2 -7 4 -15 4 -8 0 -15
-4 -15 -10z"/>
<path d="M4680 5390 c-11 -11 -24 -20 -30 -20 -5 0 -10 -4 -10 -10 0 -5 6 -10
14 -10 8 0 22 -3 32 -7 11 -4 15 -2 11 4 -4 6 2 18 13 28 11 10 20 22 20 27 0
15 -30 8 -50 -12z"/>
<path d="M4736 5378 c-8 -33 -7 -40 5 -36 6 2 10 8 10 13 0 6 8 18 16 28 15
16 14 17 -4 17 -13 0 -23 -8 -27 -22z"/>
<path d="M6820 5391 c0 -6 6 -11 13 -11 8 0 24 -12 38 -26 16 -17 31 -24 47
-21 13 3 26 -2 31 -10 5 -10 15 -13 30 -8 18 5 19 8 7 21 -8 8 -28 14 -45 14
-36 0 -48 15 -24 29 17 10 17 10 -2 11 -11 0 -37 3 -57 6 -25 5 -38 3 -38 -5z"/>
<path d="M7160 5384 c0 -8 5 -12 10 -9 6 3 10 10 10 16 0 5 -4 9 -10 9 -5 0
-10 -7 -10 -16z"/>
<path d="M4773 5343 c-4 -10 -11 -21 -16 -24 -5 -4 -8 -11 -6 -16 2 -5 24 1
49 14 25 13 37 23 28 23 -10 0 -18 5 -18 10 0 17 -30 11 -37 -7z"/>
<path d="M6668 5353 c7 -3 16 -2 19 1 4 3 -2 6 -13 5 -11 0 -14 -3 -6 -6z"/>
<path d="M4560 5290 c0 -7 24 -20 36 -20 13 0 1 19 -16 23 -11 3 -20 2 -20 -3z"/>
<path d="M4758 5263 c-30 -15 -37 -33 -13 -33 8 0 15 5 15 10 0 6 7 10 15 10
8 0 15 7 15 15 0 8 -1 15 -2 14 -2 -1 -15 -8 -30 -16z"/>
<path d="M4607 5255 c-11 -7 -25 -11 -32 -9 -9 4 -11 -2 -7 -21 3 -20 10 -25
26 -23 14 2 20 9 19 24 -2 17 3 21 27 21 33 0 39 -11 14 -25 -15 -8 -15 -10 1
-16 10 -3 23 -2 30 4 6 5 15 6 20 2 4 -4 0 6 -10 21 -12 19 -24 27 -37 24 -10
-3 -18 -1 -18 4 0 13 -12 11 -33 -6z"/>
<path d="M7175 5260 c3 -5 11 -10 16 -10 6 0 7 5 4 10 -3 6 -11 10 -16 10 -6
0 -7 -4 -4 -10z"/>
<path d="M7210 5209 c7 -11 14 -18 17 -15 8 8 -5 36 -17 36 -7 0 -7 -6 0 -21z"/>
<path d="M7290 5219 c0 -5 5 -7 10 -4 6 3 10 8 10 11 0 2 -4 4 -10 4 -5 0 -10
-5 -10 -11z"/>
<path d="M6920 5210 c0 -5 14 -10 30 -10 17 0 30 5 30 10 0 6 -13 10 -30 10
-16 0 -30 -4 -30 -10z"/>
<path d="M4705 5189 c-11 -17 1 -21 15 -4 8 9 8 15 2 15 -6 0 -14 -5 -17 -11z"/>
<path d="M7570 5075 c0 -9 -6 -12 -15 -9 -8 4 -15 1 -15 -5 0 -6 7 -11 15 -11
12 0 13 -4 5 -19 -8 -16 -5 -23 19 -40 36 -26 55 -27 22 -2 -20 15 -25 28 -24
60 0 23 -1 41 -3 41 -2 0 -4 -7 -4 -15z"/>
<path d="M7325 5050 c3 -5 13 -10 21 -10 8 0 14 5 14 10 0 6 -9 10 -21 10 -11
0 -17 -4 -14 -10z"/>
<path d="M7296 5001 c-4 -5 -2 -12 3 -15 5 -4 11 -1 13 5 3 8 9 6 20 -4 14
-14 18 -14 28 -2 9 11 8 14 -7 13 -10 0 -25 2 -34 6 -10 4 -20 3 -23 -3z"/>
<path d="M7610 4931 c0 -11 26 -22 34 -14 3 3 3 10 0 14 -7 12 -34 11 -34 0z"/>
<path d="M5400 4840 c0 -5 4 -10 9 -10 6 0 13 5 16 10 3 6 -1 10 -9 10 -9 0
-16 -4 -16 -10z"/>
<path d="M5355 4830 c3 -5 8 -10 11 -10 2 0 4 5 4 10 0 6 -5 10 -11 10 -5 0
-7 -4 -4 -10z"/>
<path d="M5210 4790 c0 -5 5 -10 10 -10 6 0 10 5 10 10 0 6 -4 10 -10 10 -5 0
-10 -4 -10 -10z"/>
<path d="M5305 4790 c-3 -5 -1 -10 4 -10 6 0 11 5 11 10 0 6 -2 10 -4 10 -3 0
-8 -4 -11 -10z"/>
<path d="M3343 4780 c-37 -15 -27 -30 17 -26 47 4 61 13 40 26 -18 12 -28 12
-57 0z"/>
<path d="M3261 4734 c-45 -14 -111 -58 -111 -75 0 -6 7 -6 19 1 26 13 34 13
25 -2 -5 -9 -4 -10 4 -3 5 6 12 19 14 30 2 13 15 22 43 27 37 8 64 23 54 31
-2 2 -24 -2 -48 -9z"/>
<path d="M3345 4730 c-3 -5 -2 -10 4 -10 5 0 13 5 16 10 3 6 2 10 -4 10 -5 0
-13 -4 -16 -10z"/>
<path d="M3495 4660 c11 -5 27 -9 35 -9 9 0 8 4 -5 9 -11 5 -27 9 -35 9 -9 0
-8 -4 5 -9z"/>
<path d="M3840 4659 c0 -5 5 -7 10 -4 6 3 10 8 10 11 0 2 -4 4 -10 4 -5 0 -10
-5 -10 -11z"/>
<path d="M3229 4572 c-28 -12 -72 -52 -65 -59 3 -4 12 -1 18 5 7 7 22 12 35
12 13 0 23 4 23 10 0 5 7 7 15 4 23 -9 45 3 39 21 -6 15 -37 19 -65 7z"/>
<path d="M3055 4510 c-3 -5 1 -10 9 -10 9 0 16 5 16 10 0 6 -4 10 -9 10 -6 0
-13 -4 -16 -10z"/>
<path d="M3189 4501 c-13 -10 -41 -21 -61 -25 -44 -8 -60 -26 -24 -26 14 0 26
4 26 9 0 5 13 11 28 14 16 3 39 15 53 26 30 25 10 28 -22 2z"/>
<path d="M6945 4430 c3 -5 11 -10 16 -10 6 0 7 5 4 10 -3 6 -11 10 -16 10 -6
0 -7 -4 -4 -10z"/>
<path d="M7215 4340 c27 -12 43 -12 25 0 -8 5 -22 9 -30 9 -10 0 -8 -3 5 -9z"/>
<path d="M7385 4321 c-5 -10 2 -16 43 -38 29 -15 28 -2 -1 25 -26 24 -33 26
-42 13z"/>
<path d="M7241 4284 c0 -11 3 -14 6 -6 3 7 2 16 -1 19 -3 4 -6 -2 -5 -13z"/>
<path d="M7385 4247 c-4 -9 -14 -17 -22 -17 -10 0 -12 -6 -7 -22 9 -30 40 -69
48 -61 3 3 15 -2 26 -12 14 -13 17 -22 9 -31 -7 -9 -5 -16 8 -26 24 -17 56
-68 44 -68 -5 0 -25 19 -45 42 -19 24 -37 40 -40 37 -11 -10 53 -86 96 -114
24 -15 56 -37 71 -47 36 -25 112 -47 137 -41 21 6 27 28 10 38 -6 4 -17 22
-25 42 -26 61 -72 110 -109 117 -44 8 -94 55 -102 94 -5 22 -13 32 -33 37 -14
3 -34 16 -43 28 -15 20 -17 20 -23 4z m97 -159 c-15 -15 -26 -4 -18 18 5 13 9
15 18 6 9 -9 9 -15 0 -24z m78 -59 c0 -5 -4 -9 -10 -9 -5 0 -10 7 -10 16 0 8
5 12 10 9 6 -3 10 -10 10 -16z m80 -53 c0 -3 -4 -8 -10 -11 -5 -3 -10 -1 -10
4 0 6 5 11 10 11 6 0 10 -2 10 -4z m26 -21 c-3 -9 1 -18 9 -21 21 -9 8 -24
-21 -24 -26 0 -33 27 -12 48 17 17 31 15 24 -3z"/>
<path d="M1554 4193 c-3 -10 -10 -27 -14 -38 -12 -27 -23 -85 -17 -85 3 0 14
24 25 53 11 28 23 60 27 70 4 10 3 17 -4 17 -7 0 -14 -8 -17 -17z"/>
<path d="M7495 4172 c6 -4 15 -16 21 -27 6 -11 20 -22 30 -24 16 -3 17 -1 4
14 -12 14 -12 18 1 27 11 8 11 9 -3 4 -10 -3 -20 -1 -23 4 -4 6 -14 10 -23 10
-10 0 -13 -3 -7 -8z"/>
<path d="M1457 3928 c-41 -116 -78 -242 -75 -255 2 -9 23 47 47 123 24 76 47
147 52 157 6 10 5 17 0 17 -5 0 -16 -19 -24 -42z"/>
<path d="M7740 3870 c0 -5 5 -10 11 -10 5 0 7 5 4 10 -3 6 -8 10 -11 10 -2 0
-4 -4 -4 -10z"/>
<path d="M7710 3835 c7 -8 22 -15 34 -15 18 0 17 2 -8 15 -36 19 -42 19 -26 0z"/>
<path d="M7751 3786 c-10 -12 -6 -21 18 -48 33 -35 39 -26 19 29 -13 37 -20
40 -37 19z"/>
<path d="M7696 3741 c-3 -5 3 -11 15 -14 16 -4 18 -3 8 9 -13 16 -16 17 -23 5z"/>
<path d="M4565 3720 c-3 -5 -1 -10 4 -10 6 0 11 5 11 10 0 6 -2 10 -4 10 -3 0
-8 -4 -11 -10z"/>
<path d="M3046 3671 c-4 -7 -5 -15 -2 -18 9 -9 19 4 14 18 -4 11 -6 11 -12 0z"/>
<path d="M4550 3635 c0 -8 5 -15 10 -15 6 0 10 7 10 15 0 8 -4 15 -10 15 -5 0
-10 -7 -10 -15z"/>
<path d="M521 3604 c0 -11 3 -14 6 -6 3 7 2 16 -1 19 -3 4 -6 -2 -5 -13z"/>
<path d="M5270 3592 c0 -12 19 -26 26 -19 2 2 -2 10 -11 17 -9 8 -15 8 -15 2z"/>
<path d="M1340 3526 c-7 -24 -10 -50 -8 -58 3 -7 10 11 17 41 14 66 8 78 -9
17z"/>
<path d="M496 3535 c-3 -9 -6 -22 -5 -28 0 -7 5 -1 10 12 5 13 8 26 5 28 -2 2
-6 -3 -10 -12z"/>
<path d="M471 3434 c0 -11 3 -14 6 -6 3 7 2 16 -1 19 -3 4 -6 -2 -5 -13z"/>
<path d="M4514 3180 c-29 -11 -52 -64 -33 -76 5 -3 15 8 21 23 7 15 20 33 28
40 20 15 10 23 -16 13z"/>
<path d="M7825 3150 c3 -5 8 -10 11 -10 2 0 4 5 4 10 0 6 -5 10 -11 10 -5 0
-7 -4 -4 -10z"/>
<path d="M5573 2953 c-3 -10 -8 -22 -11 -27 -3 -5 0 -6 5 -3 11 7 25 47 17 47
-3 0 -7 -8 -11 -17z"/>
<path d="M5573 2905 c-19 -13 -21 -20 -13 -41 14 -37 12 -89 -5 -131 -18 -42
-18 -43 -5 -43 6 0 15 12 21 27 5 14 16 31 23 37 8 6 16 23 20 39 3 15 9 39
12 53 6 24 -11 74 -25 74 -4 0 -16 -7 -28 -15z"/>
<path d="M5635 2820 c-3 -5 -1 -10 4 -10 6 0 11 5 11 10 0 6 -2 10 -4 10 -3 0
-8 -4 -11 -10z"/>
<path d="M861 2794 c0 -11 3 -14 6 -6 3 7 2 16 -1 19 -3 4 -6 -2 -5 -13z"/>
<path d="M871 2744 c0 -11 3 -14 6 -6 3 7 2 16 -1 19 -3 4 -6 -2 -5 -13z"/>
<path d="M881 2704 c0 -11 3 -14 6 -6 3 7 2 16 -1 19 -3 4 -6 -2 -5 -13z"/>
<path d="M895 2635 c3 -22 18 -78 32 -125 14 -47 31 -105 38 -130 72 -252 327
-796 508 -1080 33 -52 74 -121 90 -152 16 -32 36 -58 44 -58 7 0 18 -11 25
-25 6 -13 18 -26 27 -28 9 -2 -1 -7 -23 -12 -23 -4 -65 -3 -105 4 -151 27
-390 33 -466 10 -70 -20 -273 -18 -345 3 -71 21 -140 32 -120 19 20 -12 296
-82 496 -126 158 -34 230 -47 364 -65 36 -5 115 -17 175 -26 61 -9 149 -17
196 -19 l86 -2 109 -68 c147 -93 310 -176 419 -215 50 -18 113 -41 140 -50 89
-32 278 -87 340 -99 33 -7 98 -21 145 -31 125 -28 282 -51 307 -44 12 3 36 -1
54 -10 17 -9 64 -18 103 -21 39 -3 98 -8 131 -11 33 -3 128 -7 210 -9 83 -2
191 -6 240 -9 50 -3 124 -1 165 3 41 5 60 9 42 10 -18 0 -58 8 -90 16 -31 8
-95 24 -141 35 -49 13 -132 24 -200 27 -64 3 -125 10 -135 16 -11 5 -40 11
-65 12 -26 2 -74 16 -111 33 -35 17 -66 30 -67 28 -1 -1 13 -20 32 -40 19 -21
35 -42 35 -47 0 -20 -20 -7 -55 36 -20 25 -41 43 -46 40 -5 -4 -9 -1 -9 4 0 6
8 11 18 12 29 1 -35 17 -97 24 -34 4 -77 2 -100 -5 -48 -13 -71 -5 -44 15 30
22 5 30 -30 10 -18 -10 -35 -23 -39 -29 -4 -6 -24 7 -50 33 -24 23 -65 54 -91
67 -27 14 -52 35 -57 49 -7 17 -14 22 -29 18 -12 -3 -21 -12 -21 -19 0 -28
-28 -5 -50 41 -12 26 -100 93 -150 115 -30 13 -69 34 -87 47 -17 13 -41 23
-53 23 -12 0 -41 5 -66 11 -50 13 -61 39 -15 39 19 0 34 8 44 23 8 12 34 36
58 52 24 16 61 44 82 62 20 18 45 33 56 33 20 0 93 49 128 87 12 12 29 23 38
23 30 0 126 73 146 111 20 40 70 79 159 124 30 15 60 36 67 45 14 20 229 184
267 204 15 7 77 58 138 112 118 104 343 322 318 308 -8 -4 -71 -54 -140 -109
-135 -110 -263 -195 -293 -195 -12 0 -17 -5 -14 -14 6 -14 -97 -96 -149 -119
-16 -6 -87 -51 -159 -98 -147 -98 -294 -178 -393 -215 -68 -26 -135 -55 -187
-82 -28 -14 -29 -14 -17 1 8 9 23 19 33 22 23 8 93 75 94 90 0 6 24 32 53 59
29 27 50 51 48 53 -2 2 -28 -9 -58 -26 -61 -35 -94 -40 -84 -15 5 12 2 15 -11
9 -10 -4 -27 -10 -37 -13 -23 -6 -76 -51 -76 -64 0 -4 34 -5 76 -1 64 5 76 4
72 -8 -3 -8 -18 -14 -34 -15 -55 -1 -89 -15 -106 -43 -20 -36 -75 -48 -115
-28 -41 21 -103 37 -103 26 0 -5 18 -12 40 -15 21 -4 47 -15 57 -26 17 -19 17
-19 -10 -13 -19 5 -27 4 -25 -5 6 -26 -30 -35 -75 -18 l-43 16 -73 -39 c-40
-21 -90 -42 -109 -45 -20 -4 -50 -15 -66 -25 -22 -13 -34 -15 -48 -8 -20 11
-58 4 -58 -11 0 -4 14 -7 32 -6 42 1 51 -28 14 -45 -22 -10 -29 -9 -45 5 -15
14 -24 15 -40 6 -30 -15 -26 -23 9 -18 48 7 41 -31 -13 -63 -56 -35 -74 -40
-86 -26 -12 15 9 87 26 87 6 0 15 9 18 20 3 11 11 20 16 20 5 0 9 9 9 21 0 15
-5 19 -18 15 -16 -5 -19 -1 -19 26 0 18 5 36 11 40 14 9 -3 27 -32 33 -27 5
-27 4 -3 -40 16 -31 17 -40 6 -73 -7 -20 -20 -38 -29 -40 -19 -4 -50 55 -64
124 -13 58 -52 137 -86 174 -28 30 -57 85 -50 93 4 3 -9 12 -27 20 -19 8 -50
32 -69 52 -19 21 -54 56 -77 78 -47 44 -58 83 -22 74 19 -5 18 -3 -5 28 -14
19 -26 40 -26 47 0 17 -53 58 -74 58 -12 0 -13 -7 -5 -36 19 -67 -3 -59 -25
10 -5 15 -13 17 -41 13 -38 -6 -42 -3 -21 18 10 10 16 11 25 2 7 -7 11 -8 11
0 0 6 -14 16 -31 23 -27 12 -30 17 -25 42 5 26 3 29 -14 23 -29 -9 -56 54 -41
98 17 48 13 65 -30 127 -22 32 -46 75 -52 97 -16 51 -59 114 -74 108 -19 -6
-46 41 -41 70 3 14 1 23 -6 22 -11 -2 -75 172 -76 208 0 11 -5 27 -11 35 -8
11 -9 5 -4 -25z m425 -925 c0 -17 -19 -11 -30 9 -17 33 -11 46 10 23 11 -12
20 -26 20 -32z m20 -41 c0 -6 -4 -7 -10 -4 -5 3 -10 11 -10 16 0 6 5 7 10 4 6
-3 10 -11 10 -16z m44 -64 c-4 -8 -10 -12 -15 -9 -11 6 -2 24 11 24 5 0 7 -7
4 -15z m1080 -460 c-22 -16 -44 -19 -44 -6 0 11 18 19 44 20 20 1 20 1 0 -14z
m-60 -13 c9 -16 -58 -56 -99 -60 l-40 -3 29 30 c16 17 42 32 60 34 17 2 34 5
38 5 4 1 9 -2 12 -6z m-134 -26 c0 -3 -4 -8 -10 -11 -5 -3 -10 -1 -10 4 0 6 5
11 10 11 6 0 10 -2 10 -4z m-350 -20 c0 -3 -4 -8 -10 -11 -5 -3 -10 -1 -10 4
0 6 5 11 10 11 6 0 10 -2 10 -4z m304 -8 c-14 -26 -37 -47 -44 -43 -4 3 -13
-2 -20 -10 -16 -19 -36 -19 -44 0 -3 10 1 16 12 17 9 0 23 2 30 2 7 1 16 6 20
11 6 9 41 33 50 34 2 1 0 -5 -4 -11z m36 -12 c0 -3 -4 -8 -10 -11 -5 -3 -10
-1 -10 4 0 6 5 11 10 11 6 0 10 -2 10 -4z m-1035 -26 c3 -6 -1 -7 -9 -4 -18 7
-21 14 -7 14 6 0 13 -4 16 -10z m50 -20 c-3 -5 -10 -10 -16 -10 -5 0 -9 5 -9
10 0 6 7 10 16 10 8 0 12 -4 9 -10z m435 -100 c0 -5 -5 -10 -11 -10 -5 0 -7 5
-4 10 3 6 8 10 11 10 2 0 4 -4 4 -10z m2210 -602 c0 -13 -23 -5 -28 10 -2 7 2
10 12 6 9 -3 16 -11 16 -16z"/>
<path d="M2330 1109 c0 -5 5 -7 10 -4 6 3 10 8 10 11 0 2 -4 4 -10 4 -5 0 -10
-5 -10 -11z"/>
<path d="M2138 2602 c-10 -20 -21 -50 -24 -67 -7 -27 -6 -29 9 -16 10 7 17 21
17 30 1 9 7 33 14 54 18 48 6 48 -16 -1z"/>
<path d="M5526 2541 c-4 -7 -5 -15 -2 -18 9 -9 19 4 14 18 -4 11 -6 11 -12 0z"/>
<path d="M1040 2376 c0 -8 5 -18 10 -21 6 -3 10 1 10 9 0 8 -4 18 -10 21 -5 3
-10 -1 -10 -9z"/>
<path d="M2062 2263 c1 -5 -4 -21 -11 -37 -14 -35 -13 -36 19 -19 14 7 19 13
13 13 -7 0 -13 7 -13 15 0 8 5 15 11 15 5 0 7 5 4 10 -7 12 -26 14 -23 3z"/>
<path d="M2062 2187 c-16 -20 -41 -73 -56 -119 -25 -76 -58 -271 -60 -353 l-2
-80 -42 1 c-49 2 -56 -15 -16 -41 25 -16 27 -16 48 4 12 12 26 18 29 14 12
-11 8 -41 -5 -47 -9 -3 -8 -8 5 -16 9 -6 15 -16 11 -21 -6 -10 28 -49 42 -49
4 0 23 15 44 33 20 17 60 50 88 72 l52 39 -58 27 c-84 39 -100 53 -83 73 8 9
20 15 28 12 21 -9 34 35 16 55 -11 14 -12 18 -1 22 9 3 7 10 -9 21 -12 9 -20
22 -18 29 2 6 6 25 10 41 5 25 4 28 -8 17 -12 -9 -15 -6 -19 18 -2 16 0 29 5
28 6 -1 10 22 11 51 1 31 -3 51 -9 49 -5 -2 -10 -14 -9 -26 0 -11 -3 -21 -7
-21 -19 0 -16 19 12 75 16 33 29 67 29 77 0 22 -15 31 -28 15z m-2 -307 c0 -5
-4 -10 -10 -10 -5 0 -10 5 -10 10 0 6 5 10 10 10 6 0 10 -4 10 -10z m-25 -172
c10 -10 4 -9 -55 8 -11 3 -20 9 -20 14 0 10 60 -8 75 -22z"/>
<path d="M6822 1977 c-65 -29 -149 -91 -191 -141 -9 -10 -28 -32 -43 -48 -31
-32 -34 -39 -15 -35 27 5 10 -28 -19 -36 -29 -9 -53 -38 -60 -76 -1 -7 -12
-23 -24 -36 -15 -16 -20 -33 -18 -59 1 -26 -4 -42 -20 -58 -31 -31 -39 -15
-11 23 14 20 17 30 8 27 -8 -2 -18 -14 -24 -26 -5 -12 -15 -22 -22 -22 -7 0
-29 -21 -50 -47 -21 -25 -76 -86 -123 -135 -47 -49 -89 -98 -94 -109 -5 -10
-13 -19 -17 -19 -9 0 -75 -47 -139 -99 -20 -16 -60 -41 -90 -56 -30 -15 -66
-38 -80 -52 -38 -37 -137 -75 -195 -75 -59 0 -85 -12 -85 -37 0 -26 -74 -167
-114 -215 -18 -23 -45 -61 -61 -86 -33 -54 -141 -158 -247 -237 -42 -32 -75
-59 -74 -61 2 -1 57 14 122 34 66 20 146 44 179 54 147 43 506 209 574 265 14
12 85 58 157 103 95 58 155 104 213 162 45 45 81 87 81 94 0 7 18 27 40 45 22
18 61 64 86 102 26 38 68 88 94 110 27 22 54 55 60 72 13 35 52 126 98 227 34
76 40 93 46 140 7 53 45 150 71 180 7 8 25 38 39 67 15 28 34 54 42 57 20 8
18 36 -3 36 -10 0 -51 -15 -91 -33z m8 -62 c-32 -47 -57 -65 -87 -65 -11 1 -5
7 17 18 19 9 35 24 35 32 0 18 39 55 63 59 2 1 -11 -19 -28 -44z m-230 -269
c0 -3 -4 -8 -10 -11 -5 -3 -10 -1 -10 4 0 6 5 11 10 11 6 0 10 -2 10 -4z
m-346 -384 c6 -9 -94 -115 -102 -107 -3 3 4 15 15 28 11 12 28 37 39 55 18 31
37 41 48 24z m-120 -146 c-6 -16 -34 -29 -43 -20 -6 6 27 34 41 34 4 0 5 -6 2
-14z m-49 -45 c3 -5 1 -12 -5 -16 -5 -3 -10 1 -10 9 0 18 6 21 15 7z m-15 -50
c-5 -11 -7 -26 -4 -34 4 -12 -8 -18 -50 -27 -80 -16 -87 -9 -23 24 31 15 58
34 61 42 3 8 10 14 16 14 7 0 8 -6 0 -19z m-135 -141 c3 -5 -1 -10 -10 -10 -9
0 -13 5 -10 10 3 6 8 10 10 10 2 0 7 -4 10 -10z m-321 -242 c-4 -7 -19 -29
-33 -48 -15 -20 -19 -29 -8 -21 18 14 21 12 11 -13 -8 -21 -27 -20 -47 2 -15
16 -14 19 9 41 13 13 24 27 24 31 0 5 10 11 23 13 12 2 23 5 25 6 2 0 0 -5 -4
-11z m-89 -88 c7 -12 -32 -12 -60 0 -16 7 -13 9 17 9 20 1 40 -3 43 -9z"/>
<path d="M1262 1965 c0 -16 2 -22 5 -12 2 9 2 23 0 30 -3 6 -5 -1 -5 -18z"/>
<path d="M5832 1969 c-15 -24 -7 -78 18 -129 13 -26 15 -41 8 -54 -12 -22 -5
-30 21 -21 18 5 19 8 5 40 -18 43 -18 45 2 45 13 0 14 3 5 13 -6 8 -13 34 -16
58 -7 56 -25 77 -43 48z"/>
<path d="M2097 1903 c-4 -3 -7 -11 -7 -17 0 -6 5 -5 12 2 6 6 9 14 7 17 -3 3
-9 2 -12 -2z"/>
<path d="M2125 1880 c-3 -5 -2 -10 4 -10 5 0 13 5 16 10 3 6 2 10 -4 10 -5 0
-13 -4 -16 -10z"/>
<path d="M2110 1800 c0 -5 5 -10 10 -10 6 0 10 5 10 10 0 6 -4 10 -10 10 -5 0
-10 -4 -10 -10z"/>
<path d="M3484 1734 c-18 -14 -18 -15 6 -8 14 3 32 10 40 15 12 7 11 8 -6 9
-11 0 -29 -7 -40 -16z"/>
<path d="M2160 1686 c0 -19 33 -52 38 -38 4 14 -16 52 -28 52 -6 0 -10 -6 -10
-14z"/>
<path d="M911 1498 c184 -179 357 -328 383 -328 20 0 82 83 65 89 -6 2 -28 20
-48 40 -31 31 -111 81 -128 81 -3 0 6 -12 21 -26 33 -34 33 -47 1 -30 -15 8
-39 35 -56 61 -16 25 -45 63 -64 82 -19 20 -37 44 -40 54 -7 22 -25 26 -25 5
0 -7 -6 -19 -13 -25 -11 -8 -18 -6 -32 9 -13 15 -21 17 -31 9 -9 -7 -16 -3
-26 18 -13 27 -38 44 -88 58 -17 5 7 -25 81 -97z m-21 68 c0 -2 -7 -6 -15 -10
-8 -3 -15 -1 -15 4 0 6 7 10 15 10 8 0 15 -2 15 -4z m154 -72 c7 -18 0 -34
-15 -34 -5 0 -9 11 -9 25 0 28 15 34 24 9z m20 -94 c6 -8 1 -7 -11 4 -13 10
-20 23 -16 29 4 7 8 6 11 -3 3 -8 10 -22 16 -30z"/>
<path d="M5785 1580 c-3 -5 -2 -10 4 -10 5 0 13 5 16 10 3 6 2 10 -4 10 -5 0
-13 -4 -16 -10z"/>
<path d="M3110 1550 c0 -5 5 -10 10 -10 6 0 10 5 10 10 0 6 -4 10 -10 10 -5 0
-10 -4 -10 -10z"/>
<path d="M2905 1470 c-3 -6 1 -7 9 -4 18 7 21 14 7 14 -6 0 -13 -4 -16 -10z"/>
<path d="M2775 1300 c-3 -6 1 -7 9 -4 18 7 21 14 7 14 -6 0 -13 -4 -16 -10z"/>
<path d="M5383 1273 c-18 -6 -16 -23 1 -23 17 0 30 16 19 23 -5 2 -14 2 -20 0z"/>
<path d="M1966 1210 c-11 -3 -15 -9 -10 -13 10 -6 42 9 34 16 -3 3 -14 1 -24
-3z"/>
<path d="M5295 1210 c3 -5 8 -10 11 -10 2 0 4 5 4 10 0 6 -5 10 -11 10 -5 0
-7 -4 -4 -10z"/>
<path d="M1830 1193 c0 -7 4 -23 10 -37 12 -32 34 -35 25 -3 -8 26 -35 57 -35
40z"/>
<path d="M5090 1119 c0 -5 5 -7 10 -4 6 3 10 8 10 11 0 2 -4 4 -10 4 -5 0 -10
-5 -10 -11z"/>
<path d="M3920 1081 c-24 -14 -251 -80 -353 -103 -68 -15 -132 -21 -250 -22
-106 -2 -161 -6 -169 -14 -9 -9 -2 -12 33 -14 24 0 55 0 69 1 58 6 2 -15 -83
-30 -51 -9 -118 -22 -150 -28 -88 -18 -97 -13 -51 32 21 20 33 37 27 37 -6 0
-24 -14 -40 -30 -15 -16 -34 -30 -40 -30 -7 0 -13 -4 -13 -10 0 -5 -5 -10 -11
-10 -5 0 -8 4 -4 9 10 18 -14 22 -95 15 l-81 -7 22 -23 c13 -13 29 -24 36 -24
8 0 25 -11 39 -25 59 -59 152 -81 168 -38 4 10 14 13 30 9 18 -4 25 0 35 20
10 23 15 25 44 18 49 -11 88 -9 127 8 19 8 62 23 95 32 33 10 98 32 145 51 47
18 130 48 185 65 119 39 328 111 334 116 9 8 -35 3 -49 -5z"/>
<path d="M2908 913 c7 -3 16 -2 19 1 4 3 -2 6 -13 5 -11 0 -14 -3 -6 -6z"/>
<path d="M1929 601 c-20 -16 -20 -17 35 -81 30 -36 84 -96 120 -135 35 -38
119 -133 186 -210 150 -172 140 -161 140 -148 0 9 -64 96 -120 161 -11 13 -20
30 -20 38 0 8 -11 19 -24 23 -23 9 -41 36 -38 56 1 6 -19 35 -44 65 -51 63
-104 137 -104 149 0 4 -14 25 -30 48 -34 47 -71 59 -101 34z"/>
<path d="M3080 558 c0 -3 20 -19 45 -37 25 -18 45 -29 45 -24 0 4 -17 19 -38
33 -42 28 -52 34 -52 28z"/>
</g>
</svg>
